<svg width="250" height="159" viewBox="0 0 250 159" fill="none" xmlns="http://www.w3.org/2000/svg">
<circle cx="122" cy="50" r="50" fill="#54524C"/>
<g clip-path="url(#clip0)">
<path d="M16.463 136.976C16.6198 137.29 16.8549 137.839 17.2469 137.995C18.266 138.309 19.2068 138.936 20.2259 139.25C20.6963 139.406 21.3234 139.642 21.7938 139.406C22.6561 139.093 22.6561 137.055 22.7345 136.349C22.8129 135.643 22.8129 134.938 22.7345 134.232C22.6561 133.762 22.5777 133.684 22.4993 133.213C22.4993 133.135 22.3426 132.586 22.3426 132.508C22.2642 131.881 22.4993 131.41 22.421 130.783C22.3426 129.999 22.1074 129.137 22.029 128.274C21.9506 127.412 22.029 126.471 22.029 125.609C22.029 125.217 22.029 124.825 22.029 124.433C22.029 124.198 22.1074 122.473 22.029 122.238C21.637 121.768 21.5586 122.081 21.7938 121.611C22.1858 120.984 22.029 120.513 21.637 119.886C21.4018 119.416 21.0882 118.945 20.7747 118.789C20.2259 118.475 20.0691 118.632 19.05 118.475C18.1093 118.318 17.4821 117.926 17.0901 117.77C16.6198 117.534 14.4247 117.613 13.9543 117.77C12.3865 118.24 9.79944 118.553 7.76119 119.181C6.27169 119.573 4.86059 118.945 4.23343 119.102C3.99825 119.181 3.52788 119.965 3.3711 120.2C3.13591 120.513 3.05752 120.905 2.97912 121.297C2.90073 122.003 2.50876 122.63 2.35197 123.336C2.11678 124.041 2.27357 124.825 2.19518 125.531C2.03839 126.55 1.64642 127.569 1.33284 128.588C1.17605 129.137 1.01926 129.607 0.784078 130.156C0.627289 130.469 0.000132829 131.332 0.0785273 131.645C0.0785273 131.959 0.0785273 132.508 0.156922 132.664C0.784078 133.919 1.56802 136.427 1.56802 136.741C1.64642 136.976 1.8816 136.898 1.95999 137.133C1.95999 137.603 1.95999 138.309 2.19518 138.466C3.3711 139.171 3.68467 138.152 4.39022 137.603C5.25256 137.525 6.03651 137.525 6.89885 137.447C7.44761 137.368 7.99637 137.133 8.54513 136.976C10.3482 136.506 12.2297 136.741 14.0327 136.819C14.2679 136.976 16.3062 136.663 16.463 136.976ZM16.071 122.944C16.463 122.787 16.9333 123.1 17.3253 122.865C17.6389 122.708 17.8741 122.395 17.9525 122.081C18.1093 121.532 18.0309 121.219 17.6389 120.827C17.9525 120.905 18.4228 121.454 18.7364 121.611C19.9123 122.473 19.5988 124.433 19.5988 125.766C19.5988 127.569 19.442 129.294 19.442 131.097C19.2852 131.175 19.2068 131.253 19.05 131.175C17.9525 130.313 17.9525 128.666 17.5605 127.961C17.7173 127.647 17.9525 127.334 18.1093 127.098C18.3444 126.628 18.4228 126.236 18.7364 125.766C19.05 125.295 19.2852 124.59 19.2068 124.355C18.266 122.787 16.9333 123.414 16.463 124.198C16.3062 124.59 16.463 125.531 16.2278 126.001C16.2278 126.001 15.6006 125.295 15.4438 125.217C15.2871 124.747 15.0519 123.414 15.2087 123.257C15.3654 123.022 15.8358 123.022 16.071 122.944ZM14.8167 119.886C14.9735 119.965 15.1303 119.965 15.3654 120.043C15.3654 120.749 15.3654 120.905 14.5031 120.984C14.3463 120.827 14.4247 119.729 14.8167 119.886ZM13.1704 123.179C13.2488 123.179 13.3272 123.179 13.4056 123.179C13.5624 123.257 13.5624 124.825 13.6408 125.609C12.5432 126.393 11.6025 128.51 10.2698 128.666C10.7402 128.039 11.4457 126.471 12.0729 125.844C13.484 124.668 13.484 124.433 13.1704 123.179ZM9.40747 125.766C9.25068 125.844 9.0155 126.079 8.78031 125.923C8.46674 125.687 8.9371 125.531 9.32908 124.903C9.56426 124.511 9.48586 124.198 10.113 123.963C10.6618 123.806 11.5241 123.022 12.1513 123.179C12.1513 123.179 11.5241 123.492 11.5241 123.571C11.2105 123.649 10.8186 124.59 10.5834 124.825C10.4266 125.06 9.87784 125.531 9.40747 125.766ZM5.33096 122.081C6.42848 121.532 7.526 121.611 8.70192 120.749C9.17229 120.513 11.0538 120.121 11.9161 120.121C12.0729 120.121 12.3081 120.592 12.3865 121.062C11.9161 121.219 10.9754 121.14 10.505 121.219C9.48586 121.376 8.38834 121.768 7.36921 122.081C6.97724 122.238 5.33096 123.022 5.17417 122.787C5.17417 122.787 5.25256 122.395 5.33096 122.081ZM6.1933 135.487C5.01738 135.565 4.54701 135.957 3.76307 134.703C3.68467 134.546 3.68467 134.154 3.60628 133.919C3.44949 133.527 3.2927 133.135 3.3711 132.586C3.44949 131.881 3.13591 131.175 3.13591 130.469C3.05752 129.842 3.2927 129.137 3.44949 128.51C3.60628 127.961 3.84146 127.412 3.91986 126.785C3.99825 126.158 3.91986 125.217 4.07665 124.903C4.62541 124.903 4.93898 124.903 5.48775 124.747C5.80132 124.668 6.1149 124.511 6.42848 124.59C7.29082 124.903 6.82045 124.903 6.03651 125.923C5.87972 126.158 5.25256 126.471 4.86059 126.863C4.46862 127.255 4.15504 127.647 4.15504 128.118C4.15504 128.353 4.7822 128.588 5.01738 128.666C5.87972 129.058 6.66366 128.353 7.44761 128.118C7.6044 128.039 6.82045 129.137 6.74206 129.215C6.1149 129.764 5.17417 129.921 4.54701 130.626C4.39022 130.783 4.31183 130.94 4.31183 131.175C4.31183 131.724 4.62541 131.802 4.93899 131.959C5.56614 132.273 5.87972 132.586 6.66366 132.351C7.36921 132.116 7.83958 131.41 8.54513 131.253C9.32908 131.018 10.1914 131.097 10.9754 130.861C11.6025 130.705 12.8568 130.391 13.3272 129.842C13.7976 129.372 13.7976 129.372 14.3463 128.431C14.4247 128.431 14.5031 128.431 14.6599 128.51C14.9735 128.588 14.1895 129.842 14.1111 129.921C13.7192 130.313 13.2488 130.705 12.7 130.94C11.9161 131.253 11.2105 131.41 10.4266 131.881C9.72105 132.273 8.85871 132.429 8.15316 132.821C7.76119 133.056 7.36921 133.292 7.13403 133.684C5.95811 135.408 6.50688 135.173 9.09389 135.016C8.78031 135.33 6.42848 135.487 6.1933 135.487ZM9.87784 134.86C9.87784 134.86 9.64265 134.938 9.48586 134.938C9.56426 134.389 12.1513 133.84 13.092 133.213C13.1704 133.213 13.2488 133.213 13.1704 133.448C13.1704 133.527 13.2488 133.527 13.2488 133.527C13.7192 133.37 14.4247 133.056 14.6599 132.586C14.8951 132.194 15.5222 130.94 15.9926 130.783C16.1494 130.705 16.5414 131.175 16.6198 131.881C16.6982 132.664 17.0117 132.586 17.1685 132.978C17.3253 133.292 17.2469 133.527 17.5605 133.919C17.9525 134.389 18.8148 134.232 19.3636 134.154C19.3636 134.232 19.442 134.311 19.442 134.389C18.4228 135.8 18.1877 135.643 17.6389 134.389C16.8549 133.919 16.5414 133.84 15.8358 134.154C14.9735 134.076 14.9735 133.919 14.3463 134.232C12.7784 134.468 11.2889 134.624 9.87784 134.86Z" fill="white"/>
<path d="M53.5435 132.273C53.3867 132.116 52.8379 132.116 52.446 132.116C51.3484 132.116 50.1725 132.586 49.1534 132.665C48.3694 133.057 46.488 132.9 45.9392 132.665C45.9392 132.508 46.1744 132.116 46.488 131.724C46.8016 131.332 47.1935 131.018 47.2719 130.862C47.3503 130.391 47.5071 130.313 47.5855 130.156C47.7423 129.999 47.9775 129.45 48.0559 129.372C48.1343 129.215 48.2127 128.745 48.2911 128.588C48.4478 127.647 48.8398 127.569 49.7806 126.863C49.9373 126.785 49.8589 126.628 50.0157 126.471C51.4268 126.315 52.1324 125.923 53.3083 125.844C53.7787 125.844 53.8571 125.06 53.7003 124.668C53.4651 123.884 51.9756 123.101 51.662 123.179C50.8781 123.257 50.0941 123.571 49.467 123.571C49.2318 123.571 48.9966 123.728 48.683 123.806C47.7423 123.963 46.7232 123.649 46.0176 123.571C45.7824 122.473 44.8417 121.297 44.8417 120.905C44.7633 119.338 43.509 118.554 42.4899 118.946C42.1763 119.024 41.7059 119.338 41.7059 119.573C41.6275 120.984 41.3923 121.533 42.5683 122.709C42.6467 122.787 42.8818 122.944 42.8818 123.101C42.8818 123.336 42.9602 123.414 43.117 123.571C43.1954 123.649 43.2738 123.806 43.4306 123.884C43.509 123.963 43.4306 124.198 43.4306 124.198C43.0386 124.433 42.8034 124.276 42.5683 124.355C41.6275 124.747 40.53 124.982 39.7461 125.139C38.8053 125.296 38.1782 125.374 38.2566 125.06C38.0214 124.825 36.7671 124.982 36.6103 125.06C35.8263 125.296 35.4344 125.844 35.4344 127.02C35.4344 127.177 35.7479 127.334 35.9831 127.412C37.0806 127.804 39.5893 127.412 40.6868 126.942C40.8436 126.863 40.922 126.863 41.0788 126.863C41.0004 127.099 40.922 127.177 40.7652 127.334C40.6084 127.412 40.53 127.491 40.3732 127.569C40.138 127.804 39.9028 128.039 39.6677 128.275C39.4325 128.51 39.1973 128.745 39.0405 129.058C38.8837 129.294 38.4917 129.607 38.335 129.842C38.0214 130.47 37.8646 132.429 38.4917 132.665C38.8053 132.743 39.5893 132.665 40.0596 132.194C41.0004 131.332 41.7843 129.842 42.2547 129.215C42.3331 129.058 42.2547 128.745 42.3331 128.431C42.4899 127.883 42.725 127.412 42.8818 126.942C43.8226 126.863 44.8417 126.393 45.4689 126.315C46.0176 126.315 46.88 126.55 47.1935 126.707C46.3312 127.569 45.8608 129.215 45.2337 130.156C44.5281 131.254 43.117 131.802 42.0979 132.586C41.9411 132.665 41.5491 133.057 40.922 133.37C40.138 133.684 39.8244 133.684 39.4325 133.919C38.7269 134.311 38.4917 134.468 38.2566 134.703C37.943 134.938 35.5128 134.781 34.0233 135.173C33.7097 135.252 33.0041 135.095 32.8473 135.487C32.0634 136.82 32.2202 136.898 33.4745 137.76C33.6313 137.917 34.1017 137.682 34.3368 137.603C35.5911 137.447 37.0806 136.976 37.943 136.741C38.7269 136.506 39.3541 136.898 40.3732 136.663C41.1572 136.428 43.6658 135.644 45.0769 136.036C47.2719 137.133 51.27 136.036 52.1324 136.114C53.0731 136.192 54.7978 136.271 55.1898 135.8C56.2089 133.292 54.7194 133.057 53.5435 132.273Z" fill="white"/>
<path d="M88.3507 130.078C88.6643 129.373 89.1347 129.137 89.0563 128.589C88.8211 127.021 88.3507 127.178 87.1748 127.021C86.7828 126.864 86.7044 126.786 86.4692 126.629C85.6069 126.237 84.5878 126.158 83.7254 125.923C83.1767 125.766 83.0983 125.61 82.9415 125.61C82.4711 125.531 82.2359 125.61 81.7656 125.531C81.3736 125.531 80.9032 125.845 80.2761 126.002C79.8057 126.158 77.4539 126.629 76.8267 126.707C76.5915 126.786 76.1212 126.707 75.886 126.707C75.0237 126.786 73.0638 126.942 71.9663 127.256C71.6527 127.334 71.4175 127.491 71.2607 127.648C71.0255 127.57 70.8687 127.569 70.7904 127.413C70.6336 127.334 70.5552 127.178 70.4768 127.021C70.3984 126.942 69.928 126.942 69.6928 126.942C69.3792 126.942 69.1441 126.942 68.9089 127.099C68.5169 127.334 68.1249 127.413 67.733 127.569C67.1058 127.805 66.7138 128.589 66.1651 128.902C65.7731 129.137 65.4595 129.294 65.1459 129.608C64.8324 129.843 64.5972 130.078 64.2052 130.157C63.8916 130.235 63.4213 130.157 63.1077 130.235C63.0293 130.235 63.0293 130.548 63.0293 130.627C63.0293 130.862 63.1861 131.332 63.4997 131.568C63.5781 131.646 63.8132 131.803 63.8916 131.881C63.97 131.96 64.0484 132.116 64.2052 132.195C64.6756 132.508 65.3027 132.273 65.8515 131.803C66.1651 131.568 66.4787 131.254 66.7138 131.019C66.8706 130.862 67.4978 130.705 67.733 130.548C67.9681 130.47 68.1249 130.313 68.4385 130.157C68.5953 130.078 69.0657 129.921 69.2225 129.765C69.928 129.216 70.4768 129.294 70.712 128.51C70.712 128.432 70.712 128.275 70.712 128.197C70.7903 128.197 70.8687 128.353 71.0255 128.432C71.1039 128.51 71.1823 128.667 71.3391 128.824C71.4959 128.981 71.8095 129.294 72.0447 129.373C71.9663 129.373 71.9663 129.373 71.8879 129.451C71.4959 129.608 70.8687 129.686 70.8687 129.843C70.712 130.392 71.1823 131.019 71.8879 131.411C72.0447 131.568 72.3582 131.332 72.7502 131.332C72.7502 131.411 72.7502 131.489 72.7502 131.568C71.9663 132.038 70.6336 132.43 70.6336 133.449C70.712 133.763 71.1039 133.763 71.5743 134.076C71.9663 134.233 72.4366 133.919 72.7502 133.841C73.299 133.763 73.4558 133.606 74.0829 133.527C74.3181 133.527 74.4749 133.527 74.7101 133.449C75.0237 133.292 75.2588 133.214 75.7292 133.292C75.7292 133.371 75.886 133.606 75.7292 133.919C75.102 134.155 74.7101 134.311 74.3965 134.39C73.9261 134.547 72.7502 134.703 72.5934 134.703C72.4366 134.703 72.2798 134.703 72.1231 134.703C71.2607 134.703 71.1823 134.311 70.8687 134.468C70.4768 134.703 70.0064 135.017 69.6144 135.252C69.3009 135.409 69.536 135.723 69.6928 135.879C70.2416 136.35 70.6336 136.742 70.9471 136.663C72.1231 136.506 73.6125 136.114 75.0236 136.036C74.8669 136.663 73.6909 136.898 73.1422 137.055C72.2015 137.29 71.3391 137.212 70.32 137.055C69.8496 136.977 69.1441 136.82 68.9873 136.977C68.8305 137.134 68.6737 137.212 68.5169 137.369C67.6546 138.074 67.6546 138.231 68.9873 139.329C69.7712 139.642 72.0447 139.015 73.0638 138.937C74.0045 138.858 74.8669 138.074 76.1212 138.153C78.7866 138.153 82.2359 138.623 85.0581 138.153C85.2933 138.074 85.4501 137.839 85.4501 137.604C85.2933 135.723 83.3335 135.095 81.9224 135.644C81.2168 135.879 79.8057 135.723 78.7082 135.723C78.7082 135.644 78.7866 135.487 78.7866 135.331C80.1977 135.174 81.7656 135.409 83.0983 134.782C83.3335 134.625 83.3335 134.311 83.3335 134.155C83.4903 133.527 83.1767 133.136 82.7063 132.979C82.2359 132.822 81.5304 132.822 81.1384 132.822C80.1977 132.9 79.3353 132.979 78.473 133.057C78.473 132.979 78.3946 132.9 78.3946 132.822C79.1002 132.587 79.8841 132.352 81.1384 132.587C81.2952 132.587 81.452 132.508 81.6088 132.508C82.0008 132.508 82.4711 132.587 82.4711 132.273C82.4711 131.881 82.6279 131.489 82.6279 131.019C82.6279 130.705 82.5495 130.392 82.4711 130.313C81.844 129.451 82.3143 129.451 82.6279 129.216C82.7063 129.137 82.8631 128.981 82.8631 128.902C82.7063 128.432 82.7847 128.275 82.7063 128.118C82.4711 127.883 82.0008 127.726 81.5304 127.726C81.452 127.726 81.1384 127.726 80.9816 127.726C80.5897 127.726 79.7273 128.275 79.3353 128.353C79.0218 128.432 78.7082 128.589 78.473 128.589C77.9242 128.589 77.2187 128.589 76.9051 128.667C75.5724 129.059 74.7885 128.981 73.299 129.059C73.299 129.059 72.907 129.059 72.6718 129.059C72.907 128.981 73.1422 128.902 73.2206 128.902C73.299 128.902 73.7693 128.745 73.8477 128.745C74.2397 128.589 75.7292 128.51 76.9051 128.432C77.1403 128.432 77.8459 128.353 78.3162 128.275C78.3162 128.275 79.2569 128.197 79.6489 128.04C80.0409 127.883 80.5897 127.648 81.1384 127.569C82.2359 127.334 84.5094 127.805 85.6069 128.275C85.6853 128.51 84.1958 129.137 84.1174 129.373C83.8822 130.235 83.8822 130.313 84.7446 130.392C85.4501 130.47 86.3125 130.313 87.1748 130.157C87.5668 130.235 88.1939 130.235 88.3507 130.078ZM76.9051 130.47C77.4539 130.235 78.3946 130.313 79.1002 130.313C79.1002 130.548 79.0218 130.548 78.865 130.627C78.3162 130.862 77.1403 130.705 76.7483 130.784C76.4348 130.862 76.1212 131.019 75.9644 131.019C75.9644 130.862 75.886 130.784 75.8076 130.627C76.1212 130.47 76.5915 130.627 76.9051 130.47Z" fill="white"/>
<path d="M70.2417 121.925C70.5553 122.239 70.9473 122.709 71.5744 122.944C71.5744 123.023 71.5744 123.101 71.5744 123.336C70.4769 124.669 70.8689 125.218 72.2016 126.55C72.3584 126.707 72.6719 126.707 72.9855 126.707C73.8478 126.786 74.867 126.629 75.3373 126.629C75.4941 126.629 75.8861 126.472 76.0429 126.394C76.4349 126.237 80.1194 125.766 80.2762 125.766C80.433 125.766 80.825 125.688 80.9033 125.531C81.0601 125.218 81.5305 124.826 82.0009 124.434C82.1577 124.355 82.3928 124.277 82.3928 124.12C82.7064 122.787 82.4712 122.552 81.9225 122.395C81.7657 122.395 79.8058 122.239 79.1787 122.239C78.7083 122.317 76.3565 122.239 75.4941 122.395C75.4941 122.395 74.3182 122.631 73.7695 122.709C73.6911 122.631 73.6127 122.552 73.5343 122.552C73.5343 122.552 73.5343 122.552 73.5343 122.474C73.9262 122.317 75.4941 121.925 75.8861 121.847C76.2781 121.768 80.1978 121.768 80.1978 121.768H80.6682C80.9034 121.768 81.0601 121.69 81.2953 121.69C82.1577 121.612 82.5496 121.533 82.9416 120.2C83.02 120.044 82.628 119.965 82.3928 119.887C81.5305 119.652 79.8842 119.965 79.2571 120.044C79.2571 120.044 79.2571 120.044 79.1787 120.044C79.1787 119.965 79.1787 119.887 79.1787 119.808C79.7274 119.652 81.3737 119.652 82.3928 119.416C82.8632 119.338 83.4904 119.181 83.412 118.868C83.2552 118.397 83.3336 117.927 83.02 117.613C81.9225 116.986 79.7274 117.849 78.6299 118.005C78.5515 117.613 78.3163 117.378 78.3163 117.3C78.3163 117.221 78.1595 117.065 78.0028 116.908C77.6892 116.673 77.454 116.516 77.2188 116.516C77.062 116.516 76.8268 116.438 76.6701 116.438C76.4349 116.438 76.0429 116.908 76.1213 117.065C76.1213 117.221 76.1997 117.3 76.1213 117.378C76.1213 117.535 75.8861 118.241 75.7293 118.633C75.1806 118.868 74.6318 118.946 74.1614 118.946C73.9262 118.946 73.7695 118.789 73.5343 118.789C72.5151 118.789 71.2608 118.633 70.7121 118.946C69.7713 119.573 70.3201 120.044 70.8689 120.671C71.0256 120.828 71.0256 120.984 71.2608 121.141C70.9473 121.22 70.6337 121.298 70.3985 121.376C70.2417 121.376 70.0849 121.768 70.2417 121.925ZM74.9454 124.434C75.8077 124.12 77.5324 124.042 78.6299 123.963C78.6299 124.199 78.3947 124.199 78.1595 124.277C77.3756 124.512 75.9645 124.591 75.5725 124.747C75.3373 124.826 75.0238 124.826 74.9454 124.747C74.867 124.669 74.867 124.591 74.9454 124.434C74.867 124.434 74.9454 124.434 74.9454 124.434ZM72.4367 120.749C73.2207 120.592 73.9262 120.592 74.9454 120.671C74.9454 120.671 74.9454 120.828 74.867 120.828C73.6911 121.141 72.6719 120.749 71.7312 120.984C71.888 120.828 72.1232 120.828 72.4367 120.749Z" fill="white"/>
<path d="M102.383 123.493C102.54 123.728 102.932 123.885 103.011 124.042C103.403 124.512 103.794 124.669 104.97 124.747C105.284 124.747 105.754 124.669 105.754 124.433C105.754 123.493 105.598 123.022 105.362 122.866C104.578 122.395 103.873 121.925 103.246 121.298C102.932 121.063 102.697 120.749 102.383 120.435C102.148 120.2 101.991 119.73 101.678 119.651C100.659 119.573 100.502 119.73 100.032 120.357C99.9531 120.435 99.9532 120.514 99.8748 120.592C99.7964 120.749 99.8748 121.063 99.9532 121.219C100.188 121.925 100.737 122.395 101.521 122.866C101.678 122.944 101.835 123.022 101.991 123.101C102.148 123.179 102.305 123.258 102.383 123.258C102.383 123.336 102.305 123.414 102.383 123.493Z" fill="white"/>
<path d="M111.007 121.689C111.399 121.611 112.026 121.689 112.496 121.532C113.045 121.376 113.358 121.062 113.594 120.748C113.829 120.435 113.594 120.278 113.594 120.2C113.594 120.121 113.437 119.964 113.28 120.043C113.123 120.043 112.888 120.2 112.731 120.2C112.574 120.2 112.026 120.2 111.791 120.278C111.477 120.356 110.615 120.278 110.379 120.356C110.144 120.435 109.831 120.67 109.752 120.827C109.674 120.984 109.595 120.905 109.517 121.062C109.517 121.376 109.752 121.611 109.987 121.689C110.223 121.768 110.536 121.768 111.007 121.689Z" fill="white"/>
<path d="M109.203 122.944C109.36 123.179 109.517 123.336 109.674 123.336C109.831 123.336 109.831 123.258 109.987 123.258C110.144 123.179 110.223 123.179 110.379 123.258C110.693 123.258 111.242 123.258 111.634 123.179C112.026 123.101 112.339 122.787 112.81 122.709C113.202 122.631 113.437 122.396 113.594 122.239C113.75 122.082 113.829 121.612 113.75 121.455C113.594 121.298 113.045 121.455 112.966 121.533C112.81 121.612 111.869 121.847 111.634 121.847C111.399 121.925 110.615 121.847 110.379 121.847C110.066 121.847 109.595 122.082 109.439 122.239C109.282 122.474 109.125 122.787 109.203 122.944Z" fill="white"/>
<path d="M119.944 124.198C119.787 124.119 119.63 124.119 119.552 124.041C119.473 123.963 119.473 123.884 119.395 123.806C119.395 123.727 119.317 123.649 119.317 123.571C119.238 123.492 119.238 123.571 119.16 123.649C119.081 123.727 119.081 123.727 119.081 123.806C118.925 123.884 118.768 123.963 118.611 124.041C118.376 124.198 117.984 124.276 117.827 124.276C117.67 124.354 117.592 124.276 117.67 124.198C117.749 123.963 117.827 123.649 118.062 123.257C118.376 122.787 118.611 122.551 118.768 122.081C118.925 121.611 119.16 120.513 119.317 120.356C119.473 120.121 119.395 119.886 119.317 119.729C119.238 119.572 119.003 119.337 118.846 119.337C118.689 119.416 118.768 119.259 118.141 119.337C117.514 119.416 117.435 120.043 117.357 120.2C117.278 120.356 117.2 120.592 117.2 120.748C117.122 120.905 117.122 120.984 117.043 121.062C116.965 121.14 116.886 121.219 116.73 121.219C116.573 121.219 116.416 121.14 116.416 121.14C116.416 121.14 116.416 121.14 116.494 120.984C116.573 120.827 116.73 120.435 116.808 120.278C116.886 120.121 117.278 119.729 117.435 119.651C117.592 119.572 117.984 118.945 118.219 118.632C118.454 118.397 118.611 118.005 118.689 117.769C118.768 117.456 118.454 117.456 118.376 117.377C118.219 117.299 117.827 117.064 117.827 117.064C117.514 116.907 117.278 117.221 117.2 117.299C117.043 117.377 116.965 117.456 116.73 117.613C116.494 117.769 116.416 118.083 116.416 118.24C116.338 118.397 116.259 118.867 116.102 119.024C115.946 119.18 115.632 119.416 115.554 119.572C115.397 119.729 115.083 120.121 115.005 120.356C114.848 120.513 114.613 120.905 114.535 121.14C114.535 121.375 114.613 121.689 114.691 121.767C114.848 121.924 115.005 122.159 115.162 122.081C115.318 122.003 115.789 122.316 115.789 122.316C115.71 122.395 115.475 122.63 115.397 122.787C115.318 122.943 115.083 123.1 115.083 123.414C115.083 123.492 115.005 123.649 115.005 123.727C114.848 123.571 114.691 123.257 114.535 123.022C114.378 122.787 113.986 122.63 113.751 122.551C113.437 122.473 112.81 122.865 112.653 122.943C112.496 123.022 111.634 123.335 111.399 123.335C111.242 123.335 110.928 123.414 110.772 123.414C110.536 123.335 110.223 123.335 110.066 123.257C109.831 123.179 109.517 123.414 109.36 123.492C109.204 123.571 108.655 124.041 108.655 124.041C108.498 124.119 108.577 124.276 108.733 124.511C108.733 124.511 108.733 124.511 108.655 124.59C108.577 124.668 108.498 124.746 108.42 124.903C108.263 124.982 108.028 125.138 107.871 125.138C107.714 125.138 107.714 125.217 107.636 125.217C107.557 125.217 107.479 125.217 107.479 125.217C107.479 125.217 107.557 125.138 107.636 124.903C107.714 124.746 107.714 124.825 107.793 124.668C107.871 124.511 108.028 124.276 108.263 123.963C108.498 123.571 108.733 122.708 108.89 122.551C109.047 122.395 108.969 122.081 108.89 121.924C108.812 121.767 108.655 121.767 108.577 121.689C108.498 121.689 108.263 121.611 108.263 121.532C108.263 121.454 108.106 121.454 108.263 121.297C108.42 121.14 108.577 121.062 108.812 120.748C109.047 120.513 108.969 120.513 109.125 120.2C109.125 120.121 109.204 120.043 109.204 119.886C109.36 119.964 109.596 120.121 109.752 120.043C110.066 119.964 110.066 119.964 110.38 119.886C110.693 119.886 111.242 119.808 111.399 119.808C111.556 119.808 111.634 119.729 111.712 119.729C111.869 119.729 112.575 119.651 112.81 119.572C113.045 119.494 113.672 119.416 113.986 119.494C114.299 119.494 114.77 119.494 115.005 119.337C115.24 119.259 115.397 119.18 115.475 119.024C115.554 118.867 115.71 118.71 115.789 118.397C115.867 118.083 115.632 118.005 115.475 117.848C115.24 117.691 114.691 117.534 114.456 117.456C114.221 117.456 113.829 117.534 113.515 117.613H113.437C113.437 117.534 113.359 117.534 113.28 117.456C113.123 117.299 112.653 117.221 112.496 117.221C112.339 117.221 111.948 117.221 111.712 117.142C111.477 117.064 111.007 117.299 111.007 117.299C110.615 117.377 110.615 118.005 110.615 118.318C110.615 118.397 110.615 118.475 110.615 118.475C110.223 118.632 109.909 118.788 109.752 118.788C109.596 118.788 109.204 118.867 109.047 118.945V118.867C108.89 118.553 108.733 118.397 108.341 118.083C107.949 117.769 107.244 118.005 107.244 118.005C106.93 118.083 106.852 118.318 106.695 118.632C106.617 118.945 106.46 119.416 106.381 119.651C106.303 119.964 106.146 120.043 106.068 120.121C105.99 120.2 105.833 120.356 105.833 120.435C105.754 120.513 105.519 120.748 105.441 120.827C105.362 120.905 105.206 121.219 105.206 121.611C105.284 122.003 105.598 122.159 105.676 122.395C105.833 122.63 105.911 123.022 105.911 123.257C105.99 123.492 106.146 123.806 106.225 123.884C106.303 123.963 106.46 124.041 106.46 124.119C106.46 124.198 106.382 124.354 106.303 124.511C106.225 124.668 105.99 124.982 105.911 125.138C105.833 125.217 105.833 125.374 105.754 125.53C105.676 125.609 105.362 126.001 105.206 126.158C105.049 126.314 104.892 126.628 104.892 126.785L104.814 126.706C104.657 126.55 104.5 126.393 104.422 126.314C104.108 126.158 103.716 126.55 103.559 126.706C103.324 126.393 103.246 126.158 103.167 126.001C102.775 125.374 102.54 125.295 102.07 125.138C101.913 125.06 101.991 125.217 101.756 125.138C101.756 125.06 101.756 124.982 101.756 124.825C101.678 124.668 101.521 124.511 101.443 124.354C101.364 124.198 101.364 123.963 101.129 123.806C100.737 123.649 100.424 123.571 100.11 123.571C99.0908 123.492 98.4637 123.806 98.5421 125.06C98.5421 125.138 98.5421 125.374 98.6205 125.452C98.7772 125.609 98.934 125.766 99.0908 125.922C99.4828 126.314 99.9532 126.628 100.424 126.863C100.737 127.098 101.051 127.333 101.521 127.412C101.913 127.49 102.227 127.412 102.619 127.49C102.54 127.647 102.305 127.569 102.227 127.725C101.991 127.961 101.913 128.274 101.678 128.509C101.443 128.745 101.129 128.98 100.894 129.215C100.659 129.45 100.424 129.607 100.267 129.842C100.188 129.999 100.188 129.999 100.188 130.156C100.11 130.156 100.032 130.156 100.032 130.234C99.6396 130.704 99.2476 131.175 98.8556 131.645C98.6204 131.959 98.3853 132.272 98.0717 132.508C97.9149 132.664 97.5229 133.056 97.3661 133.135C96.5822 133.448 96.1902 133.37 95.8766 133.84C95.7983 133.919 95.7199 134.075 95.6415 134.232C95.5631 134.389 95.5631 134.232 95.2495 134.546C94.6223 135.33 95.8766 136.114 96.5822 136.114C97.131 136.114 97.6013 135.643 98.0717 135.33C98.6988 134.859 99.2476 134.311 99.8748 133.762C100.032 133.605 100.345 133.448 100.424 133.291C101.051 132.272 101.756 131.332 102.383 130.469C102.54 130.312 102.54 130.156 102.775 129.92C103.559 129.137 104.892 128.039 105.284 127.098V127.02C105.362 127.098 105.441 127.177 105.441 127.177C105.598 127.333 106.068 127.569 106.303 127.49C106.538 127.49 107.009 127.569 107.479 127.49C107.871 127.412 108.263 127.49 108.42 127.412C108.498 127.333 108.655 127.098 108.733 126.942C108.812 126.785 109.204 126.079 109.36 125.844C109.439 125.687 109.439 125.452 109.517 125.217C109.674 125.452 109.831 125.687 110.066 125.766C110.301 125.922 110.85 126.079 111.085 126.079C111.32 126.001 111.477 126.079 111.556 125.922C111.791 125.844 112.026 125.766 112.183 125.687C112.339 125.609 113.359 125.295 113.594 125.217H113.672C113.751 125.138 114.299 124.746 114.456 124.511C114.535 124.433 114.691 124.198 114.848 123.963C114.77 124.276 114.691 124.668 114.613 124.825C114.535 125.06 114.456 125.06 114.535 125.295C114.613 125.53 114.848 125.766 115.005 125.766C115.162 125.766 115.24 125.766 115.475 125.766C115.71 125.766 116.651 126.001 117.043 126.001C117.357 126.001 118.141 126.158 118.297 126.158C118.454 126.158 118.454 126.079 118.533 126.001C118.611 125.922 118.768 125.922 118.925 125.766C119.081 125.609 119.317 125.374 119.395 125.217C119.473 125.06 119.63 124.982 119.865 124.746C120.022 124.511 120.179 124.276 120.257 123.963C120.101 124.354 120.101 124.354 119.944 124.198ZM112.339 124.511C112.339 124.511 112.339 124.59 112.339 124.668C112.104 124.746 111.869 124.825 111.791 124.903C111.712 124.903 111.556 124.982 111.399 124.982C111.399 124.903 111.399 124.825 111.32 124.746C111.32 124.668 111.242 124.511 111.242 124.433C111.399 124.433 111.712 124.433 111.791 124.354C111.948 124.276 112.339 124.276 112.339 124.276C112.339 124.276 112.339 124.433 112.339 124.511Z" fill="white"/>
<path d="M117.592 130.861C117.435 130.783 117.2 130.783 117.043 130.626C116.886 130.548 116.338 130.391 116.103 130.391C115.867 130.391 115.475 130.391 115.319 130.469C115.162 130.469 115.005 130.626 114.77 130.626C114.535 130.704 114.535 130.704 114.456 130.704C114.378 130.704 114.064 130.783 113.829 130.861C113.594 130.861 112.732 131.253 112.418 131.332C112.104 131.41 111.399 131.488 111.164 131.567C110.928 131.645 110.693 131.724 110.693 131.724C110.693 131.724 110.693 131.802 110.693 131.645C110.693 131.567 110.693 131.488 110.693 131.41C110.85 131.332 111.007 131.253 111.085 131.253C111.32 131.253 111.869 131.018 112.104 131.018C112.34 131.018 112.653 130.783 113.045 130.704C113.124 130.704 113.28 130.704 113.359 130.704C113.359 130.783 113.516 130.704 113.672 130.704C113.986 130.626 114.535 130.626 114.613 130.626C114.691 130.626 114.848 130.391 114.927 130.391C115.005 130.312 115.24 130.234 115.319 130.156C115.397 130.156 115.397 129.92 115.632 129.764C115.867 129.607 116.103 129.45 116.338 129.293C116.573 129.137 117.2 128.588 117.2 128.431C117.278 128.196 117.122 127.882 116.965 127.725C116.808 127.569 116.573 127.49 116.338 127.412C116.103 127.255 115.554 127.02 115.162 126.942C114.77 126.863 114.143 126.785 113.986 126.785C113.829 126.785 113.672 126.628 113.359 126.628C113.045 126.628 112.183 126.785 111.869 126.942C111.556 127.098 110.693 127.412 110.458 127.49C110.223 127.569 109.831 127.647 109.753 127.647C109.674 127.647 109.282 127.882 109.047 127.961C108.812 128.039 108.498 128.196 108.263 128.274C108.028 128.431 107.714 128.509 107.479 128.666C107.244 128.823 107.166 129.058 107.087 129.137C107.009 129.293 107.087 129.45 107.166 129.529C107.322 129.685 107.479 129.92 107.636 130.156C107.793 130.391 107.871 130.312 108.185 130.312C108.498 130.312 108.733 130.391 108.89 130.312C109.125 130.234 109.517 130.077 109.596 129.999C109.674 129.92 109.988 129.685 110.066 129.607C110.223 129.529 110.458 129.293 110.693 129.293C110.928 129.293 111.712 129.137 111.869 129.058C112.104 128.98 112.81 128.98 113.045 128.901C113.28 128.823 113.829 128.745 113.829 128.745C113.829 128.745 113.907 128.823 113.907 128.98C113.907 128.98 113.907 129.058 113.907 129.137C113.672 129.215 113.437 129.215 113.359 129.293C113.202 129.372 112.496 129.372 112.026 129.45C111.556 129.529 111.242 129.607 111.085 129.685C110.928 129.764 110.693 129.842 110.301 129.92C109.988 129.999 109.596 130.312 109.439 130.391C109.204 130.469 108.577 130.704 108.263 130.783C108.185 130.783 108.106 130.861 108.028 130.861C107.949 130.861 107.949 130.861 107.949 130.861C107.871 130.861 107.871 130.94 107.793 131.018C107.714 131.096 107.714 131.175 107.714 131.332C107.714 131.567 107.949 131.724 108.028 131.959C108.106 132.194 108.106 132.978 108.263 133.291C108.42 133.605 108.969 133.683 108.969 133.683C108.969 133.683 108.969 133.683 109.361 133.683C109.753 133.683 109.988 133.605 110.301 133.527C110.615 133.448 111.242 133.291 111.399 133.291C111.556 133.291 111.791 133.291 112.104 133.291C112.418 133.291 112.967 133.213 113.359 133.135C113.751 133.056 114.378 132.899 114.691 132.899C115.005 132.821 115.554 132.899 115.554 132.899C115.554 132.899 115.632 133.056 115.554 133.213C115.475 133.37 115.397 133.448 115.319 133.762C115.162 133.997 115.083 134.467 115.005 134.624C114.927 134.781 114.691 135.408 114.535 135.643C114.456 135.878 114.378 135.878 114.143 135.957C113.907 136.035 113.437 136.192 112.967 136.27C112.575 136.349 111.556 136.584 110.928 136.584C110.301 136.584 109.831 136.427 109.439 136.27C109.125 136.114 108.812 136.114 108.341 135.957C107.871 135.8 107.636 135.957 107.479 136.035C107.322 136.114 107.479 136.584 107.479 136.662C107.479 136.741 107.558 136.819 107.714 136.976C107.949 137.133 108.106 137.446 108.341 137.603C108.577 137.76 109.361 138.23 109.596 138.387C109.831 138.544 110.066 138.544 110.223 138.544C110.38 138.544 110.38 138.544 110.458 138.544C110.537 138.544 110.38 138.622 110.458 138.622C110.537 138.701 110.772 138.779 111.164 138.857C111.556 138.936 111.948 139.093 112.575 139.093C113.202 139.171 113.986 139.171 114.299 139.171C114.613 139.171 114.848 139.249 115.005 139.171C115.162 139.093 115.397 138.936 115.554 138.701C115.711 138.466 116.024 138.152 116.103 137.917C116.259 137.682 116.573 137.29 116.73 137.133C116.808 136.976 116.808 136.898 116.886 136.662C116.965 136.427 117.122 135.722 117.435 135.016C117.749 134.311 118.454 133.527 118.533 133.448C118.611 133.37 118.611 133.135 118.611 132.899C118.611 132.664 118.69 132.037 118.454 131.567C118.376 131.175 117.749 130.94 117.592 130.861Z" fill="white"/>
<path d="M134.76 119.024C134.446 119.102 133.976 119.18 133.741 119.337C133.114 120.043 132.957 120.356 133.349 120.748C133.584 120.984 134.055 121.14 134.525 121.297C134.682 121.297 134.838 121.375 134.995 121.375C136.014 121.297 136.955 121.14 137.817 120.67C137.974 120.592 137.974 120.513 138.209 120.356C138.366 120.278 138.366 120.356 138.445 120.356C138.837 120.356 139.464 120.278 139.699 119.886C139.777 119.729 139.856 119.651 139.856 119.416C139.777 119.18 139.621 119.102 139.464 119.024C138.131 118.005 136.328 118.553 134.76 119.024Z" fill="white"/>
<path d="M153.81 127.412C153.653 127.334 153.183 127.02 152.869 127.02C152.556 127.02 152.399 127.255 152.164 127.412C151.929 127.569 151.929 127.882 151.693 127.961C151.537 128.118 151.066 128.353 150.909 128.51C150.753 128.745 150.204 129.215 149.969 129.45C149.734 129.686 149.734 129.686 149.498 129.607C149.263 129.45 148.558 129.294 148.401 128.98C148.244 128.666 147.93 128.196 147.617 127.726C147.382 127.255 147.303 126.471 147.303 126.158C147.303 125.844 147.695 125.609 147.695 125.217C147.774 124.903 147.93 124.355 147.93 124.041C147.93 123.728 147.382 123.571 147.068 123.414C146.755 123.257 146.284 123.022 146.127 122.865C145.971 122.787 145.422 122.865 145.108 123.022C145.03 123.022 144.951 123.1 144.873 123.1C144.951 122.944 145.03 122.787 145.03 122.63C145.108 122.473 145.187 122.316 145.265 122.081C145.343 122.081 145.5 122.081 145.579 122.081C146.049 122.081 147.068 122.081 147.46 122.003C147.93 121.925 149.106 121.846 149.263 121.768C149.42 121.768 149.577 121.533 149.577 121.376C149.577 121.141 149.498 120.984 149.42 120.67C149.342 120.357 149.263 120.121 148.95 119.886C148.714 119.651 148.087 119.416 147.695 119.416C147.303 119.416 146.441 119.416 145.892 119.494C145.814 119.494 145.657 119.494 145.579 119.573C145.814 119.337 146.049 119.024 146.206 118.946C146.441 118.789 146.598 118.318 146.598 118.162C146.598 118.005 146.598 117.848 146.284 117.378C145.971 116.907 145.5 116.829 145.03 116.75C144.559 116.672 144.089 116.829 144.089 116.829C143.619 116.907 143.776 117.77 143.697 117.848C143.619 118.083 143.305 118.083 142.913 118.554C142.6 118.946 141.972 119.573 141.737 119.808C141.659 119.886 141.424 120.043 141.032 120.2C140.405 120.357 139.699 120.592 139.385 120.592C138.993 120.67 137.269 121.141 136.642 121.297C136.093 121.454 135.936 121.533 135.231 121.454C134.603 121.454 134.133 121.297 133.898 121.219C133.663 121.141 133.506 121.219 133.114 121.297C132.722 121.376 132.252 121.454 132.095 121.689C131.86 121.924 132.016 122.238 132.095 122.552C132.173 122.865 132.8 123.257 133.114 123.336C133.349 123.414 133.584 123.728 133.819 123.728C134.055 123.728 134.447 123.649 135.387 123.492C135.466 123.492 135.623 123.414 135.701 123.414C135.701 123.492 135.701 123.649 135.779 123.806C135.701 123.806 135.701 123.806 135.623 123.806C135.231 123.884 134.525 124.041 134.29 124.12C134.055 124.198 133.427 124.355 133.271 124.276C133.114 124.198 132.879 124.12 132.565 124.12C132.252 124.12 131.86 124.512 131.86 124.512C131.546 124.747 131.311 125.217 131.311 125.531C131.311 125.844 131.311 126.315 131.468 126.471C131.624 126.628 131.938 126.785 132.252 126.707C132.644 126.628 133.036 126.628 133.349 126.471C133.663 126.315 134.447 126.158 134.682 126.079C134.839 126.001 135.309 125.923 135.623 125.923C135.623 126.079 135.623 126.236 135.544 126.393C135.152 126.55 134.525 126.55 134.211 126.707C133.819 126.863 133.192 126.942 132.957 127.02C132.722 127.099 132.487 127.099 132.33 127.177C132.173 127.255 131.938 127.412 131.468 127.491C131.076 127.569 130.135 127.647 129.743 127.569C129.273 127.569 129.351 127.647 129.116 127.804C128.881 127.961 128.724 128.196 128.567 128.51C128.41 128.902 128.567 129.215 128.802 129.45C128.959 129.764 129.194 130.078 129.351 130.156C129.508 130.234 130.213 130.078 130.527 129.999C130.919 129.842 132.016 129.372 132.408 129.215C132.8 129.058 133.741 128.823 134.055 128.745C134.368 128.666 134.839 128.588 135.231 128.588C135.152 128.902 135.152 129.215 135.074 129.294C134.917 129.607 134.839 129.686 134.603 129.842C134.525 129.921 134.368 129.999 134.368 129.999C134.368 129.999 134.29 129.999 134.211 129.921C134.133 129.842 133.976 129.686 133.819 129.607C133.584 129.45 133.114 129.686 132.8 129.842C132.487 129.999 132.095 130.313 131.938 130.391C131.781 130.47 131.86 130.705 132.016 130.783C132.173 130.861 132.095 130.94 132.173 131.097C132.252 131.253 132.33 131.489 132.487 131.645C132.644 131.802 132.879 131.881 133.036 132.037C133.271 132.194 134.133 132.508 134.368 132.586C134.603 132.665 134.917 132.821 135.231 132.9C135.074 132.9 134.917 132.978 134.76 132.978C134.29 133.057 133.506 132.978 132.33 132.9C131.154 132.9 131.232 133.213 131.154 133.527C131.076 133.919 130.919 133.762 131.154 134.311C131.389 134.781 131.624 135.095 132.095 135.173C132.644 135.252 133.036 135.173 133.506 135.095C133.976 135.016 134.76 134.86 135.387 134.781C135.936 134.703 136.877 134.703 137.504 134.624C137.269 135.095 137.19 135.173 137.112 135.33C136.955 135.565 136.798 135.722 136.72 135.8C136.642 135.879 136.485 135.957 136.485 135.957C136.485 135.957 136.25 135.957 136.014 136.036C135.779 136.114 135.074 136.349 134.839 136.427C134.603 136.584 134.368 136.663 134.133 136.663C133.898 136.741 133.741 136.819 133.663 137.055C133.584 137.29 133.819 137.995 134.29 138.309C134.76 138.623 134.682 138.858 135.309 138.701C135.936 138.544 136.72 138.466 137.269 138.387C137.818 138.309 138.131 138.152 138.445 138.074C138.68 137.995 138.758 137.917 139.229 137.839C139.699 137.76 140.64 137.76 140.953 137.682C141.345 137.603 142.051 137.525 142.364 137.447C142.678 137.368 142.756 137.211 142.992 137.211C143.148 137.211 143.305 137.211 143.462 137.133C143.619 137.29 143.932 137.682 144.011 137.839C144.168 138.074 144.638 138.309 145.03 138.387C145.422 138.466 145.892 138.231 146.127 138.152C146.363 138.074 146.755 137.839 146.911 137.525C147.068 137.211 147.382 136.349 147.147 136.036C146.911 135.722 146.755 135.252 146.284 134.86C145.892 134.389 145.657 134.076 145.5 133.762C145.422 133.527 145.265 133.448 145.03 133.292C145.108 133.292 145.108 133.292 145.187 133.292C145.892 133.292 146.284 133.37 146.598 133.057C146.833 132.821 147.147 132.586 147.225 132.273C147.303 132.116 147.46 131.881 147.46 131.645C147.538 131.724 147.617 131.724 147.695 131.724C147.852 131.802 148.244 132.037 148.401 132.194C148.558 132.351 148.714 132.586 148.871 132.665C149.028 132.743 149.42 132.743 149.734 132.665C150.047 132.586 150.596 132.273 150.753 132.116C150.909 131.959 151.223 131.645 151.301 131.41C151.38 131.175 151.458 131.175 151.615 131.018C151.772 130.861 151.85 130.783 152.007 130.626C152.164 130.47 152.085 130.391 152.164 130.234C152.321 130.078 152.477 129.999 152.556 129.686C152.634 129.45 152.634 129.372 152.791 129.137C152.869 128.902 153.104 128.51 153.261 128.274C153.34 128.039 153.496 127.491 153.653 127.177C154.045 127.412 154.045 127.491 153.81 127.412ZM143.619 125.766C144.011 125.609 144.246 125.609 144.403 125.531C144.638 125.452 144.873 125.531 144.873 125.531C144.873 125.531 144.873 125.452 144.951 125.609C144.951 125.844 145.03 126.079 145.03 126.393C145.03 126.628 145.108 126.707 145.108 126.942C145.03 126.942 144.951 126.942 144.873 126.863C144.638 126.707 144.324 126.628 143.854 126.236C143.697 126.158 143.54 126.079 143.384 126.001C143.54 126.001 143.619 125.923 143.619 125.766ZM142.364 135.33C142.129 135.33 141.58 135.565 141.424 135.565C141.267 135.644 141.189 135.722 140.875 135.8C140.64 135.879 140.405 135.8 140.013 135.879C139.699 135.957 139.464 136.036 139.464 135.879C139.464 135.8 139.621 135.644 139.699 135.408C139.856 135.173 140.013 135.095 140.091 134.86C140.091 134.781 140.169 134.703 140.248 134.624C140.718 134.468 140.875 134.389 141.189 134.232C141.424 134.076 142.051 133.997 142.051 133.997C142.051 133.997 142.051 133.997 142.6 133.84C142.678 133.84 142.756 133.84 142.913 133.762C142.992 133.919 143.148 134.076 143.148 134.232C143.227 134.468 143.305 134.781 143.305 134.938V135.016C143.07 135.173 142.521 135.33 142.364 135.33ZM146.755 131.41C146.363 131.41 146.206 131.253 145.814 131.175C145.5 131.097 145.343 131.175 144.951 131.253C144.559 131.332 144.559 131.253 144.168 131.332C143.776 131.41 142.678 131.645 141.972 131.724C141.345 131.802 139.307 132.429 138.68 132.586C138.053 132.743 137.347 132.978 136.877 133.057C136.72 133.057 136.563 133.057 136.328 133.135C136.406 133.057 136.563 132.9 136.642 132.743C136.877 132.429 137.034 132.429 137.112 132.194C137.19 132.037 137.112 131.802 137.347 130.626C137.504 129.999 137.582 129.294 137.739 128.666C138.053 128.588 138.445 128.431 138.602 128.353C138.837 128.274 139.15 128.118 139.385 128.039C139.621 127.961 139.699 127.804 139.699 127.569C139.699 127.334 139.542 127.099 139.385 126.942C139.229 126.785 138.837 126.471 138.602 126.393C138.445 126.315 138.131 126.315 137.896 126.315C137.896 126.236 137.896 126.158 137.896 126.079C137.896 125.923 137.896 125.923 137.896 125.766C137.974 125.766 137.974 125.766 137.974 125.766C138.21 125.687 138.837 125.609 138.993 125.531C139.15 125.452 139.072 125.374 139.15 125.217C139.15 125.06 139.229 124.825 139.229 124.668C139.229 124.512 138.993 124.198 138.915 124.041C138.837 123.884 138.758 123.649 138.523 123.649C138.445 123.649 138.366 123.649 138.288 123.649C138.21 123.492 138.131 123.414 137.974 123.336C138.21 123.257 138.445 123.1 138.68 123.022C138.993 122.944 139.307 123.022 139.621 123.022C139.934 123.022 141.345 122.473 141.816 122.473C142.129 122.473 142.6 122.473 143.07 122.395C143.07 122.63 142.913 122.787 142.835 123.022C142.756 123.257 142.6 123.414 142.286 123.728C142.286 123.806 142.208 123.806 142.129 123.884C141.894 123.884 141.737 123.884 141.659 123.884C141.345 123.884 140.797 123.963 140.561 124.041C140.326 124.12 140.013 124.276 139.934 124.668C139.934 124.982 140.326 125.217 140.483 125.295C140.561 125.374 140.797 125.531 140.953 125.766C140.797 126.236 140.718 126.55 140.64 126.785C140.561 127.02 140.326 127.334 140.013 127.804C139.699 128.274 139.307 128.353 139.15 128.823C139.072 129.058 138.915 129.294 138.837 129.529C138.68 129.529 138.523 129.529 138.445 129.529C138.053 129.607 137.818 129.764 137.661 130.391C137.582 130.705 137.582 130.783 137.739 131.253C137.896 131.724 137.974 132.037 138.21 131.959C138.523 131.959 138.993 131.881 139.464 131.802C139.934 131.645 140.483 131.567 140.953 131.489C141.345 131.41 141.267 131.332 141.581 131.332C141.894 131.253 142.678 131.175 143.148 131.097C143.619 131.018 144.324 130.861 144.559 130.705C144.795 130.548 145.03 130.47 145.265 130.156C145.5 129.764 145.5 129.764 145.422 129.294C145.343 128.823 145.187 129.137 144.951 129.137C144.716 129.137 144.403 129.137 144.168 129.137C143.932 129.137 143.854 129.137 143.54 129.137C143.227 129.137 142.913 129.137 142.443 129.137C142.443 129.137 142.443 129.137 142.364 129.137C142.364 129.058 142.364 128.98 142.443 128.902C142.678 128.588 142.756 128.431 142.913 128.196C143.07 128.274 143.305 128.274 143.462 128.353C143.697 128.431 143.854 128.666 144.246 128.666C144.638 128.666 144.951 128.51 145.265 128.51C145.422 128.51 145.657 128.431 145.814 128.431C145.971 128.745 146.206 129.137 146.284 129.215C146.363 129.372 146.519 129.45 146.598 129.686C146.755 129.921 147.068 130.548 147.147 130.94C147.225 131.097 147.225 131.175 147.225 131.332C147.068 131.41 146.911 131.41 146.755 131.41Z" fill="white"/>
<path d="M167.921 117.77C167.529 117.927 167.216 118.162 166.902 118.397C166.589 118.633 165.805 119.26 165.256 119.652C164.707 120.044 164.707 120.436 164.629 121.141C164.55 121.768 165.099 121.847 165.413 122.004C165.726 122.082 165.805 122.082 166.197 121.925C166.589 121.768 167.294 121.612 167.608 121.455C167.921 121.298 168.94 120.984 169.254 120.828C169.646 120.671 169.881 120.357 170.038 120.044C170.195 119.652 170.195 119.181 170.195 118.711C170.116 118.319 170.116 118.319 169.803 118.162C169.568 118.005 169.411 117.927 169.019 117.692C168.784 117.457 168.47 117.535 167.921 117.77Z" fill="white"/>
<path d="M170.665 130.235C170.822 130.078 171.292 129.686 171.371 129.608C171.371 129.529 171.527 129.451 171.606 129.294C171.606 129.686 171.606 129.843 171.528 130.235C171.449 130.784 171.057 131.176 171.057 131.489C170.979 131.881 171.214 132.351 171.684 132.665C172.155 132.979 172.155 133.135 172.311 133.214C172.468 133.292 172.468 133.449 172.703 133.449C172.939 133.449 173.331 133.449 173.566 133.214C173.801 133.057 173.879 132.822 174.036 132.665C174.193 132.587 174.271 132.508 174.271 132.116C174.35 131.803 174.428 131.332 174.507 131.019C174.585 130.705 174.585 130.627 174.663 130.548C174.663 130.47 174.663 130.47 174.663 130.392C174.663 130.313 174.585 130.392 174.585 130.392L174.507 130.313C174.507 130.313 174.507 130.235 174.507 130.156C174.507 130.078 174.428 130 174.507 129.921C174.507 129.921 174.585 130 174.585 129.921C174.585 129.843 174.663 129.764 174.663 129.686C174.742 129.529 174.742 129.529 174.742 129.529C174.742 129.529 174.742 129.529 174.742 129.372C174.742 129.294 174.742 129.216 174.742 129.059C174.742 129.059 174.742 129.059 174.82 129.059C175.055 129.216 175.29 129.372 175.604 129.608C175.918 129.843 176.153 129.921 176.388 129.921C176.623 129.921 176.78 129.686 176.937 129.608C177.094 129.451 177.407 129.137 177.485 129.059C177.564 128.902 177.485 128.667 177.407 128.353C177.329 128.04 176.858 127.413 176.702 127.256C176.545 127.021 175.839 126.629 175.682 126.55C175.526 126.472 174.977 126.001 174.742 125.766V125.688C174.977 125.61 175.134 125.61 175.447 125.688C175.918 125.688 176.466 125.766 176.78 125.61C177.094 125.531 177.172 125.531 177.407 125.218C177.642 124.904 177.799 124.747 178.034 124.434C178.269 124.12 178.348 124.042 178.191 123.885C178.034 123.65 177.877 123.493 177.564 123.258C177.25 123.022 176.623 122.944 175.918 123.023C175.212 123.101 174.977 123.258 174.585 123.336H174.507C174.507 122.787 174.507 122.395 174.507 122.082C174.663 122.003 174.742 122.003 174.82 121.925C175.055 121.768 175.839 121.611 176.31 121.376C176.78 121.141 176.937 120.906 177.015 120.749C177.094 120.592 177.015 120.592 177.015 120.279C177.015 119.965 177.015 119.887 176.937 119.808C176.858 119.73 176.545 119.573 176.231 119.573C175.918 119.573 175.604 119.495 175.369 119.573C175.212 119.573 174.977 119.652 174.742 119.652C174.742 119.573 174.742 119.416 174.82 119.416C174.898 119.103 174.898 119.024 174.82 118.632C174.742 118.24 174.271 118.24 174.115 118.162C173.879 118.084 173.487 118.084 173.095 118.084C172.86 118.084 172.547 117.848 172.233 118.24C171.998 118.476 171.919 118.397 171.919 119.024C171.919 119.652 171.919 119.652 171.919 120.044C171.919 120.435 171.998 120.435 171.919 120.592C171.841 120.749 171.919 120.671 171.841 121.298C171.841 121.847 171.919 121.925 171.919 122.317C171.919 122.709 171.919 122.866 171.841 123.65C171.841 123.963 171.841 124.198 171.763 124.434C170.9 124.747 169.96 124.982 169.724 125.061C169.332 125.139 168.549 125.139 168.392 125.139C168.157 125.139 168.078 125.139 167.843 125.453C167.608 125.766 167.608 126.08 167.843 126.315C168.078 126.55 168.549 127.099 169.019 127.256C169.489 127.413 169.803 127.256 170.273 127.177C170.508 127.177 170.744 127.099 170.979 127.021C170.744 127.334 170.352 127.883 169.881 128.275C169.097 128.824 168.705 129.216 168.392 129.451C168.157 129.686 167.373 130.156 167.137 130.313C167.059 130.313 167.059 130.392 166.981 130.47C167.059 129.921 167.137 129.216 167.137 128.824C167.137 128.275 166.981 127.569 167.059 126.707C167.137 126.237 167.137 125.845 167.216 125.61C167.294 125.531 167.373 125.453 167.373 125.453C167.608 125.139 168.627 124.669 168.784 124.434C168.94 124.198 168.862 124.042 168.94 123.65C168.94 123.258 168.784 122.866 168.627 122.395C168.47 121.925 167.686 122.082 166.902 122.317C166.51 122.474 165.883 122.866 165.726 123.179C165.491 123.493 165.334 123.806 165.099 123.963C164.864 124.12 164.394 124.59 164.002 124.904C163.61 125.296 163.296 125.61 162.826 126.237C162.355 126.864 162.512 126.785 162.355 127.021C162.12 127.256 162.042 127.099 161.415 127.569C161.023 127.883 160.552 128.197 160.239 128.353C159.925 128.51 159.847 128.51 159.533 128.589C159.22 128.745 159.063 128.902 158.828 129.216C158.592 129.529 158.436 129.608 158.592 129.921C158.749 130.156 158.984 130.313 159.298 130.313C159.612 130.392 160.239 130.548 160.787 130.548C161.336 130.548 161.493 130.627 161.807 130.392C162.12 130.235 162.277 130 162.982 129.451C163.61 128.902 164.315 128.51 164.942 128.118V128.275C164.942 128.275 164.942 128.275 165.021 128.51C165.099 128.745 165.178 128.902 165.099 129.137C165.021 129.372 165.099 129.372 165.021 129.686C164.942 129.921 164.942 130 164.942 130.235C164.942 130.47 164.864 130.627 164.864 130.784C164.864 130.94 164.707 131.254 164.629 131.411C164.55 131.646 164.629 131.489 164.55 131.803C164.394 132.116 164.472 132.273 164.472 132.9C164.472 133.449 164.394 133.998 164.394 134.546C164.394 135.095 164.55 135.252 164.707 135.409C164.864 135.566 165.099 135.801 165.334 135.958C165.57 136.114 165.883 136.506 166.04 136.585C166.197 136.585 166.275 136.663 166.51 136.506C166.745 136.35 166.745 136.193 166.824 135.958C167.216 135.095 167.137 135.174 167.216 134.468C167.294 133.763 167.216 133.214 167.137 132.665C167.137 132.508 167.137 132.273 167.137 132.116C167.216 132.195 167.373 132.273 167.451 132.351C167.608 132.508 167.765 132.665 167.843 132.743C168 132.743 168.157 132.587 168.313 132.508C168.47 132.43 168.549 132.195 168.94 132.038C169.254 131.881 169.646 131.724 169.881 131.567C170.116 131.411 170.352 131.411 170.508 131.254C170.352 130.784 170.508 130.47 170.665 130.235Z" fill="white"/>
<path d="M178.269 123.493C178.269 123.493 178.269 123.493 178.504 123.728C178.739 123.963 178.975 123.963 179.288 124.12C179.523 124.198 179.523 124.277 179.68 124.277C179.837 124.277 179.915 124.277 180.15 124.198C180.386 124.12 180.621 124.12 180.856 123.963C181.091 123.885 181.405 123.806 181.64 123.728C181.954 123.649 182.894 123.336 183.051 123.336C183.286 123.258 183.6 123.414 183.678 123.414C183.757 123.414 183.835 123.336 184.149 123.101C184.462 122.866 184.619 122.552 184.776 122.16C184.854 121.846 184.697 121.846 184.619 121.768C184.541 121.768 184.384 121.69 184.149 121.533C183.913 121.454 183.365 121.298 183.051 121.219C182.816 121.141 182.659 121.062 182.502 121.141C182.424 121.219 182.189 121.219 181.875 121.298C181.562 121.376 180.699 121.454 180.386 121.533C180.15 121.611 178.975 121.69 178.504 121.69C178.034 121.69 177.955 121.768 177.72 122.082C177.563 122.317 177.485 122.317 177.563 122.709C177.955 123.179 178.269 123.493 178.269 123.493Z" fill="white"/>
<path d="M188.382 125.923C188.382 125.609 188.303 125.374 188.068 125.06C187.833 124.668 187.755 124.511 187.363 124.198C186.892 123.963 186.187 123.806 185.403 123.806C184.697 123.806 184.776 123.728 184.462 123.728C184.149 123.728 183.6 123.806 183.129 123.884C182.659 123.963 182.032 124.12 181.483 124.198C181.013 124.355 180.699 124.433 180.542 124.511C180.464 124.511 180.15 124.59 179.837 124.668C179.523 124.747 178.975 124.825 178.661 124.747C178.269 124.747 178.112 124.668 177.799 124.982C177.25 125.531 177.25 126.001 177.25 126.315C177.25 126.628 177.25 126.785 177.171 127.177C177.171 127.569 177.328 127.569 177.642 127.647C177.955 127.726 178.191 127.647 178.739 127.569C179.21 127.49 179.21 127.412 179.837 127.412C179.994 127.726 179.915 128.039 179.994 128.666C180.072 129.294 180.15 129.607 180.15 129.921C180.229 130.234 180.229 130.705 180.15 131.018C180.072 131.332 180.15 131.724 180.15 132.037C180.15 132.351 180.15 132.821 180.15 133.292C180.072 133.762 180.072 133.84 179.68 134.076C179.367 134.232 179.053 134.389 178.818 134.389C178.583 134.468 177.72 134.468 177.407 134.468C177.093 134.389 176.074 134.311 175.604 134.311C175.133 134.311 174.584 134.389 174.114 134.546C173.722 134.703 173.487 134.781 173.565 135.016C173.644 135.252 173.722 135.33 173.957 135.565C174.114 135.722 174.271 135.644 174.506 135.722C174.741 135.8 175.447 136.506 175.682 136.584C175.917 136.663 176.466 136.898 176.858 136.898C177.25 136.976 177.328 137.055 177.642 137.055C177.877 137.055 177.72 137.29 178.191 137.368C178.661 137.447 178.975 137.603 179.367 137.603C179.758 137.682 181.013 137.682 181.64 137.682C182.267 137.76 182.189 137.603 182.346 137.447C182.502 137.211 182.737 137.133 182.816 136.976C182.894 136.741 182.816 136.035 182.737 134.938C182.659 133.84 182.737 132.194 182.659 131.253C182.659 130.313 182.894 128.51 182.973 128.039C183.051 127.647 183.208 127.334 183.286 127.02C183.757 126.942 184.305 126.942 184.619 126.942C185.089 126.942 185.716 126.863 185.952 126.785C186.265 126.707 186.344 126.628 186.657 126.55C186.971 126.471 187.363 126.393 187.755 126.315C188.225 126.315 188.382 126.236 188.382 125.923Z" fill="white"/>
<path d="M217.78 134.311C217.466 134.154 217.153 134.154 216.604 133.997C216.055 133.762 215.585 133.605 215.35 133.37C215.114 133.213 214.722 133.135 214.252 132.9C213.86 132.665 212.763 132.116 212.135 131.724C211.508 131.332 210.803 130.783 210.332 130.234C209.862 129.686 209.47 128.902 208.686 127.882C208.137 127.177 207.51 126.236 207.118 125.609C207.432 125.609 207.745 125.609 208.059 125.531C208.608 125.531 209.47 125.687 210.019 125.609C210.646 125.531 210.881 125.531 211.273 125.452C211.743 125.374 211.665 125.295 212.371 125.139C212.606 125.06 212.606 124.982 212.684 125.139C212.684 125.217 212.606 125.295 212.527 125.295C212.606 125.374 213.155 125.139 213.39 125.06C213.546 124.982 213.625 124.747 213.625 124.276C213.703 123.649 213.782 123.336 213.782 122.787C213.703 122.238 213.311 122.238 212.763 122.003C212.214 121.768 212.057 121.846 211.587 121.846C211.195 121.846 210.489 121.689 209.627 122.003C208.764 122.316 208.294 122.395 207.353 122.63C206.883 122.787 206.648 122.865 206.334 122.944C206.413 122.316 206.491 121.846 206.569 121.611C206.883 120.121 206.726 119.886 206.961 118.554C207.197 117.221 207.275 117.378 206.805 116.672C206.256 115.967 205.55 116.358 205.158 116.515C204.139 116.907 204.531 117.221 204.61 117.848C204.688 118.475 204.688 119.102 204.766 119.651C204.766 120.2 204.766 120.513 204.531 121.533C204.296 122.473 204.296 122.081 203.904 122.865C203.826 123.1 203.669 123.492 203.59 123.884C203.512 123.884 203.512 123.884 203.434 123.884C202.65 124.12 202.336 124.12 201.631 124.12C201.003 124.12 200.219 124.12 199.749 124.12C199.279 124.12 197.711 123.963 197.084 124.198C196.456 124.433 196.065 124.512 196.143 125.217C196.143 125.923 196.378 126.785 196.927 127.02C197.476 127.255 197.632 127.177 198.26 127.177C198.887 127.177 199.044 126.942 199.749 126.707C200.376 126.471 201.239 126.393 202.022 126.158C202.258 126.079 202.65 126.001 203.12 125.923C203.12 126.001 203.042 126.079 203.042 126.079C202.806 126.628 202.493 127.804 202.258 128.588C201.944 129.372 201.866 129.45 201.631 129.764C201.395 130.078 201.003 130.705 200.455 131.175C199.906 131.645 198.887 132.821 198.103 133.37C197.319 133.919 196.613 134.703 196.221 134.938C195.829 135.173 195.359 135.487 195.437 135.879C195.516 136.271 195.437 137.055 195.516 137.682C195.594 138.231 196.221 138.231 196.848 138.074C197.632 137.917 197.946 137.682 198.573 137.447C199.2 137.211 199.2 137.29 199.514 137.133C199.827 136.898 199.906 136.898 200.376 136.506C200.847 136.114 201.552 135.408 201.944 134.938C202.336 134.389 202.493 134.154 202.728 133.684C202.963 133.213 203.198 133.057 203.669 132.194C204.139 131.332 204.688 130.548 204.923 129.842C205.158 129.215 205.55 127.961 205.785 127.099C206.021 127.334 206.256 127.569 206.569 128.118C206.961 128.745 206.961 128.98 207.667 130.234C207.98 130.783 208.137 130.626 208.372 130.861C208.608 131.097 208.529 131.489 208.764 131.802C209 132.116 208.764 132.351 209 132.743C209.235 133.292 209.47 133.684 209.705 134.076C209.94 134.468 209.94 134.546 210.332 135.173C210.724 135.8 211.273 135.957 211.822 136.114C212.371 136.271 212.841 136.506 213.468 136.584C214.095 136.663 215.114 136.819 215.428 136.819C215.742 136.819 215.585 136.741 215.82 136.663C216.055 136.584 216.212 136.741 216.839 136.663C217.388 136.506 218.407 136.349 219.191 136.192C219.74 136.114 219.818 136.036 219.896 135.8C220.053 135.408 219.818 135.33 219.504 135.016C219.112 134.86 218.172 134.389 217.78 134.311Z" fill="white"/>
<path d="M227.344 130.705C227.971 130.391 228.99 129.607 229.461 129.059C229.931 128.51 230.48 127.961 230.637 127.647C230.793 127.334 230.637 127.256 230.637 126.942C230.637 126.785 230.637 126.55 230.558 126.393C230.715 126.315 230.793 126.236 230.95 126.158C231.342 125.923 231.891 126.001 232.048 125.374C232.205 124.747 232.283 124.433 232.205 123.414C232.205 122.473 231.656 122.317 231.421 121.611C231.185 120.906 231.029 120.827 230.637 120.514C230.245 120.122 229.696 120.278 229.304 120.357C228.912 120.514 228.598 120.514 228.677 120.749C228.755 122.16 228.52 122.865 228.677 123.571C228.755 124.277 229.069 124.355 229.539 125.06C229.774 125.452 229.931 125.766 229.931 126.001C229.618 126.08 229.304 126.158 229.069 126.236C228.52 126.393 228.442 126.55 228.128 126.785C227.893 127.02 227.266 127.412 227.031 127.569C226.795 127.804 226.482 127.961 226.247 128.275C226.011 128.588 225.463 128.745 225.384 129.294C225.306 129.843 225.698 130.548 225.855 130.783C226.011 131.097 226.717 130.94 227.344 130.705Z" fill="white"/>
<path d="M249.53 125.138C249.295 124.903 248.511 124.511 248.04 124.355C247.57 124.198 245.688 123.963 245.14 123.963C244.983 123.963 244.591 123.963 244.277 123.884C244.277 123.806 244.356 123.806 244.356 123.727C244.434 123.335 244.591 122.787 244.591 122.473C244.669 122.159 244.904 121.924 245.061 121.376C245.218 120.748 245.218 120.356 245.296 119.808C245.453 119.18 245.532 119.337 245.61 118.632C245.688 117.926 245.218 117.848 244.826 117.456C244.434 117.064 244.042 116.907 243.65 116.907C243.258 116.907 242.631 116.907 242.239 116.985C241.847 117.064 241.533 116.985 241.298 117.142C241.063 117.299 240.828 117.221 240.514 117.299C240.201 117.377 240.122 117.377 239.809 117.848C239.574 118.24 240.044 118.867 240.201 118.867C240.358 118.867 240.985 118.867 241.377 118.867C241.769 118.867 242.004 118.867 242.239 118.789C242.474 118.789 242.553 118.867 242.553 118.945C242.553 118.945 242.553 119.102 242.553 119.18C242.239 119.259 241.455 119.259 241.142 119.337C240.75 119.337 240.358 119.416 240.122 119.808C239.809 120.356 240.122 120.592 240.671 120.748C241.142 120.984 241.533 120.905 241.847 120.827C242.004 120.748 242.161 120.748 242.317 120.748C242.239 120.905 242.239 121.14 242.239 121.297C241.769 121.376 241.142 121.376 240.828 121.376C240.436 121.376 240.201 121.376 240.044 121.767C239.809 122.316 239.966 122.63 240.279 122.943C240.593 123.257 240.985 123.335 241.377 123.335C241.455 123.335 241.534 123.335 241.612 123.335C241.612 123.414 241.533 123.492 241.533 123.571C241.455 123.727 241.298 123.963 240.985 124.198C240.593 124.276 240.201 124.276 239.887 124.355C239.966 124.119 240.044 123.884 239.887 123.727C239.73 123.492 239.417 122.787 239.26 122.63C239.182 122.551 239.103 122.473 238.946 122.395C239.182 122.081 239.338 121.689 239.338 121.532C239.417 121.297 239.338 120.984 239.26 120.827C239.574 120.67 239.73 120.356 239.73 120.121C239.73 119.886 239.574 119.729 239.182 119.337C239.025 119.18 238.868 119.024 238.711 118.867C238.946 118.632 239.103 118.475 239.182 118.397C239.417 118.083 239.574 117.221 239.417 117.064C239.26 116.907 238.868 116.672 238.476 116.515C238.084 116.358 237.927 116.123 237.535 116.358C237.143 116.593 237.065 117.221 236.83 117.691C236.751 117.769 236.751 117.848 236.673 118.005C236.595 118.005 236.516 118.005 236.438 118.005C236.046 118.083 235.34 118.24 234.948 118.318C234.948 118.161 234.87 118.005 234.713 117.691C234.321 117.142 233.929 116.907 233.537 116.829C233.145 116.75 232.753 116.829 232.44 116.985C232.205 117.221 232.048 117.613 231.891 118.24C231.656 118.867 231.891 118.945 232.048 119.572C232.205 120.2 232.283 121.062 232.283 121.846C232.283 122.63 232.44 122.551 232.518 122.943C232.597 123.414 232.597 124.198 232.675 124.903C232.675 125.06 232.675 125.217 232.675 125.374C232.283 125.374 231.813 126.079 231.656 126.314C231.421 126.706 232.361 127.02 233.224 127.098C234.008 127.177 235.732 126.863 236.203 126.785C236.673 126.628 236.987 126.628 237.3 126.55C237.614 126.471 237.927 126.158 238.319 126.079C238.711 126.001 239.025 125.844 239.652 125.844C240.279 125.844 241.22 125.922 242.239 126.001C243.258 126.079 244.356 126.079 244.669 126.079C244.904 126.079 245.453 126.158 245.453 126.158C245.453 126.158 245.296 126.706 245.061 126.942C244.826 127.177 244.512 127.255 244.277 127.882C244.121 128.509 244.434 128.588 244.826 128.901C245.218 129.137 244.983 129.137 245.924 128.901C246.864 128.666 247.648 128.196 248.04 127.882C248.432 127.569 248.589 127.412 248.903 127.255C249.216 127.098 249.451 126.863 249.843 126.158C250.314 125.374 249.765 125.374 249.53 125.138ZM234.948 118.789C234.948 118.71 234.948 118.71 234.948 118.632C235.027 118.71 235.105 118.789 235.184 118.867C235.262 118.945 235.419 119.024 235.576 119.102C235.34 119.337 235.027 119.494 234.792 119.651C234.948 119.337 234.948 119.102 234.948 118.789ZM234.713 120.905C235.027 120.748 235.497 120.67 235.889 120.435C236.124 120.278 236.516 120.121 236.83 119.964C236.987 120.121 237.143 120.278 237.3 120.435C237.143 120.592 236.987 120.827 236.908 120.984C236.124 120.748 236.046 120.748 235.654 120.748C235.262 120.748 234.792 120.905 234.792 120.905C234.713 120.905 234.713 120.905 234.635 120.984C234.713 121.062 234.713 120.984 234.713 120.905ZM234.713 121.767C234.87 121.846 235.027 121.924 235.262 122.003C235.419 122.081 235.576 122.316 235.811 122.473C235.576 122.708 235.027 122.943 234.713 123.1C234.713 123.022 234.713 122.865 234.713 122.787C234.792 122.551 234.713 122.159 234.713 121.767ZM236.673 124.825C236.124 124.982 235.576 125.06 235.105 125.138C235.027 125.138 234.948 125.138 234.87 125.217C234.87 125.138 234.87 125.06 234.87 125.06C234.87 124.982 234.87 124.903 234.87 124.825C235.105 124.982 235.34 125.06 235.497 124.982C235.967 124.746 236.359 124.511 236.83 124.355C236.908 124.355 236.987 124.276 237.065 124.198C237.3 124.433 237.457 124.668 237.614 124.825C237.222 124.668 236.908 124.746 236.673 124.825Z" fill="white"/>
<path d="M245.14 132.037C246.081 132.273 246.081 132.194 246.316 132.194C246.551 132.116 246.786 132.037 247.1 131.567C247.492 131.175 247.1 130.94 246.943 130.705C246.786 130.548 246.786 130.313 246.473 129.921C246.159 129.529 245.689 129.294 245.14 129.294C244.591 129.294 243.572 129.686 243.258 129.686C242.866 129.686 241.926 129.764 241.377 129.764C241.298 129.764 241.142 129.764 240.985 129.842C241.455 129.294 242.161 128.823 242.71 128.51C243.337 128.118 243.415 128.039 243.415 127.726C243.415 127.412 243.102 126.863 242.631 126.471C242.082 126.079 241.534 126.158 240.593 126.158C239.652 126.158 239.103 126.315 238.633 126.471C238.241 126.628 236.673 127.02 235.968 127.177C235.341 127.334 234.086 127.647 233.381 127.726C232.597 127.882 231.891 127.882 231.578 128.196C231.342 128.51 231.342 128.51 231.578 128.902C231.734 129.215 231.97 129.372 232.675 129.607C233.459 129.842 233.773 129.842 234.321 129.686C234.87 129.529 236.046 128.98 236.516 128.902C237.536 128.666 237.849 128.196 238.476 127.961C239.103 127.726 239.966 127.647 239.966 127.882C239.966 128.118 239.809 128.431 239.652 128.666C239.495 128.98 239.339 129.137 239.26 129.215C239.103 129.058 238.947 128.98 238.79 128.823C238.476 128.666 238.006 128.51 237.692 128.666C236.83 129.137 237.144 129.372 237.3 129.686C237.457 129.842 237.536 130.077 237.614 130.313C236.83 130.469 235.889 130.626 235.341 130.783C234.713 130.94 232.989 131.253 232.675 131.332C232.283 131.41 231.264 131.489 230.794 131.489C230.323 131.489 230.088 131.253 229.618 131.567C229.069 131.959 228.834 132.194 228.912 132.665C228.991 133.135 229.461 133.213 229.853 133.448C230.245 133.684 231.186 133.37 232.126 133.213C232.989 133.056 234.243 132.978 235.184 132.821C236.124 132.665 236.124 132.665 236.752 132.665C237.065 132.665 237.457 132.586 237.849 132.508C237.849 132.665 237.849 132.821 237.849 132.9C237.849 133.292 237.928 133.762 237.928 134.546C237.928 135.33 237.849 135.408 237.536 135.722C237.222 136.035 236.673 136.192 236.046 136.349C235.419 136.506 233.773 136.427 233.224 136.349C232.675 136.271 231.734 136.349 231.342 136.349C230.95 136.349 230.872 136.427 230.872 136.584C230.872 136.741 230.872 136.976 231.029 137.211C231.264 137.447 231.499 137.76 231.813 137.839C232.126 137.917 233.067 138.387 233.773 138.622C234.478 138.858 234.87 138.936 235.184 138.936C235.497 138.936 235.889 139.328 236.673 139.328C237.457 139.328 238.163 139.328 238.398 139.25C238.633 139.171 239.182 138.622 239.574 137.995C240.044 137.29 239.966 136.427 240.044 135.722C240.123 135.016 240.044 132.821 240.044 132.194C240.515 132.116 240.985 132.037 241.612 131.959C242.788 132.037 244.042 131.802 245.14 132.037Z" fill="white"/>
<path d="M7.29062 149.598C7.29062 150.93 7.36901 152.185 7.44741 153.361C7.05543 152.342 6.50667 151.244 5.95791 150.303L4.07644 147.011H1.72461V156.026H3.60608V153.282C3.60608 151.793 3.60608 150.538 3.52768 149.363H3.60608C4.07644 150.46 4.6252 151.558 5.17397 152.577L7.13383 156.026H9.25048V147.011H7.29062V149.598Z" fill="white"/>
<path d="M17.7175 152.106C17.7175 150.538 17.0119 149.284 14.8169 149.284C13.641 149.284 12.7002 149.598 12.3083 149.833L12.7002 151.166C13.0922 150.93 13.8761 150.695 14.5033 150.695C15.5224 150.695 15.6792 151.166 15.6792 151.558V151.636C13.3274 151.636 11.8379 152.42 11.8379 154.145C11.8379 155.164 12.6218 156.183 13.9545 156.183C14.7385 156.183 15.3656 155.869 15.836 155.399H15.9144L16.0712 156.026H17.8743C17.7959 155.634 17.7959 155.085 17.7959 154.458V152.106H17.7175ZM15.7576 153.596C15.7576 153.753 15.7576 153.831 15.6792 153.909C15.5224 154.301 15.1305 154.693 14.5817 154.693C14.1113 154.693 13.7978 154.458 13.7978 153.909C13.7978 153.126 14.6601 152.89 15.6792 152.89V153.596H15.7576Z" fill="white"/>
<path d="M22.9697 147.56L21.0098 148.03V149.441H20.1475V150.931H21.0098V153.596C21.0098 154.537 21.1666 155.164 21.5586 155.556C21.8721 155.869 22.4209 156.105 23.0481 156.105C23.5968 156.105 24.1456 156.026 24.3808 155.948V154.38C24.224 154.38 24.0672 154.458 23.7536 154.458C23.1264 154.458 22.9697 154.066 22.9697 153.282V150.931H24.4592V149.441H22.9697V147.56Z" fill="white"/>
<path d="M29.3981 149.441H27.3599V156.027H29.3981V149.441Z" fill="white"/>
<path d="M28.3788 146.619C27.7516 146.619 27.2812 147.09 27.2812 147.638C27.2812 148.187 27.6732 148.657 28.3788 148.657C29.0843 148.657 29.4763 148.187 29.4763 147.638C29.3979 147.011 29.0059 146.619 28.3788 146.619Z" fill="white"/>
<path d="M35.5912 149.284C33.4746 149.284 32.0635 150.617 32.0635 152.734C32.0635 154.85 33.553 156.105 35.4344 156.105C37.1591 156.105 38.8838 155.007 38.8838 152.577C38.8838 150.695 37.5511 149.284 35.5912 149.284ZM35.5128 154.693C34.6505 154.693 34.1801 153.831 34.1801 152.734C34.1801 151.793 34.5721 150.774 35.5128 150.774C36.4536 150.774 36.8455 151.793 36.8455 152.734C36.7671 153.909 36.2968 154.693 35.5128 154.693Z" fill="white"/>
<path d="M44.6849 149.284C43.5873 149.284 42.9602 149.911 42.6466 150.303H42.5682L42.4898 149.441H40.7651C40.7651 149.99 40.8435 150.695 40.8435 151.558V156.026H42.8818V152.263C42.8818 152.106 42.8818 151.871 42.9602 151.793C43.117 151.401 43.4305 151.009 43.9793 151.009C44.6849 151.009 44.9984 151.558 44.9984 152.42V156.026H47.0367V152.106C47.0367 150.147 46.096 149.284 44.6849 149.284Z" fill="white"/>
<path d="M55.2683 152.106C55.2683 150.538 54.5627 149.284 52.3677 149.284C51.1917 149.284 50.251 149.598 49.859 149.833L50.251 151.166C50.643 150.93 51.4269 150.695 52.0541 150.695C53.0732 150.695 53.23 151.166 53.23 151.558V151.636C50.8782 151.636 49.3887 152.42 49.3887 154.145C49.3887 155.164 50.1726 156.183 51.5053 156.183C52.2893 156.183 52.9164 155.869 53.3868 155.399H53.4652L53.622 156.026H55.425C55.3467 155.634 55.3467 155.085 55.3467 154.458V152.106H55.2683ZM53.3084 153.596C53.3084 153.753 53.3084 153.831 53.23 153.909C53.0732 154.301 52.6812 154.693 52.2109 154.693C51.7405 154.693 51.4269 154.458 51.4269 153.909C51.4269 153.126 52.2893 152.89 53.3084 152.89V153.596Z" fill="white"/>
<path d="M60.3639 146.462H58.3257V155.948H60.3639V146.462Z" fill="white"/>
<path d="M66.4004 148.657H68.8306V155.948H70.8689V148.657H73.3775V146.933H66.4004V148.657Z" fill="white"/>
<path d="M80.3547 152.106C80.3547 150.538 79.6491 149.284 77.4541 149.284C76.2782 149.284 75.3374 149.598 74.9455 149.833L75.3374 151.166C75.7294 150.93 76.5134 150.695 77.1405 150.695C78.1596 150.695 78.3164 151.166 78.3164 151.558V151.636C75.9646 151.636 74.4751 152.42 74.4751 154.145C74.4751 155.164 75.259 156.183 76.5917 156.183C77.3757 156.183 78.0028 155.869 78.4732 155.399H78.5516L78.7084 156.026H80.5115C80.4331 155.634 80.4331 155.085 80.4331 154.458V152.106H80.3547ZM78.3948 153.596C78.3948 153.753 78.3948 153.831 78.3164 153.909C78.1596 154.301 77.7677 154.693 77.2189 154.693C76.7485 154.693 76.435 154.458 76.435 153.909C76.435 153.126 77.2973 152.89 78.3164 152.89V153.596H78.3948Z" fill="white"/>
<path d="M85.4504 149.441H83.4121V156.027H85.4504V149.441Z" fill="white"/>
<path d="M84.431 146.619C83.8039 146.619 83.3335 147.09 83.3335 147.638C83.3335 148.187 83.7255 148.657 84.431 148.657C85.1366 148.657 85.5285 148.187 85.5285 147.638C85.5285 147.011 85.0582 146.619 84.431 146.619Z" fill="white"/>
<path d="M95.1708 152.028C95.0141 152.812 94.8573 153.518 94.7789 154.302C94.6221 153.518 94.4653 152.812 94.3085 152.107L93.6813 149.52H92.0351L91.3295 152.185C91.1727 152.812 91.0159 153.596 90.8591 154.302C90.7807 153.518 90.624 152.812 90.4672 152.107L89.9184 149.441H87.8018L89.6832 156.027H91.5647L92.1918 153.753C92.3486 153.126 92.5054 152.499 92.5838 151.715C92.7406 152.499 92.819 153.126 92.9758 153.753L93.603 156.027H95.4844L97.5227 149.441H95.5628L95.1708 152.028Z" fill="white"/>
<path d="M105.441 152.106C105.441 150.538 104.735 149.284 102.54 149.284C101.364 149.284 100.423 149.598 100.031 149.833L100.423 151.166C100.815 150.93 101.599 150.695 102.226 150.695C103.246 150.695 103.402 151.166 103.402 151.558V151.636C101.051 151.636 99.561 152.42 99.561 154.145C99.561 155.164 100.345 156.183 101.678 156.183C102.462 156.183 103.089 155.869 103.559 155.399H103.638L103.794 156.026H105.597C105.519 155.634 105.519 155.085 105.519 154.458V152.106H105.441ZM103.481 153.596C103.481 153.753 103.481 153.831 103.402 153.909C103.246 154.301 102.854 154.693 102.305 154.693C101.834 154.693 101.521 154.458 101.521 153.909C101.521 153.126 102.383 152.89 103.402 152.89V153.596H103.481Z" fill="white"/>
<path d="M112.339 149.284C111.242 149.284 110.615 149.911 110.301 150.303H110.223L110.144 149.441H108.341C108.341 149.99 108.42 150.695 108.42 151.558V156.026H110.458V152.263C110.458 152.106 110.458 151.871 110.536 151.793C110.693 151.401 111.007 151.009 111.555 151.009C112.261 151.009 112.575 151.558 112.575 152.42V156.026H114.613V152.106C114.691 150.147 113.672 149.284 112.339 149.284Z" fill="white"/>
<path d="M127.313 152.185C127.313 153.753 126.686 154.537 125.666 154.537C124.647 154.537 124.02 153.753 124.02 152.185V147.011H121.982V152.028C121.982 154.929 123.315 156.183 125.588 156.183C127.94 156.183 129.351 154.85 129.351 152.106V147.011H127.313V152.185Z" fill="white"/>
<path d="M136.328 149.284C135.231 149.284 134.604 149.911 134.29 150.303H134.212L134.133 149.441H132.33C132.33 149.99 132.408 150.695 132.408 151.558V156.026H134.447V152.263C134.447 152.106 134.447 151.871 134.525 151.793C134.682 151.401 134.995 151.009 135.544 151.009C136.25 151.009 136.563 151.558 136.563 152.42V156.026H138.602V152.106C138.68 150.147 137.661 149.284 136.328 149.284Z" fill="white"/>
<path d="M143.776 149.441H141.737V156.027H143.776V149.441Z" fill="white"/>
<path d="M142.757 146.619C142.13 146.619 141.659 147.09 141.659 147.638C141.659 148.187 142.051 148.657 142.757 148.657C143.462 148.657 143.854 148.187 143.854 147.638C143.854 147.011 143.384 146.619 142.757 146.619Z" fill="white"/>
<path d="M150.283 152.499C150.126 153.048 150.047 153.596 149.891 154.067H149.812C149.734 153.518 149.577 153.048 149.42 152.499L148.558 149.441H146.363L148.715 156.027H150.753L153.183 149.441H151.066L150.283 152.499Z" fill="white"/>
<path d="M158.122 149.284C155.848 149.284 154.829 151.087 154.829 152.812C154.829 154.85 156.083 156.183 158.357 156.183C159.219 156.183 160.082 156.026 160.709 155.791L160.474 154.38C159.925 154.537 159.376 154.615 158.67 154.615C157.73 154.615 156.867 154.223 156.789 153.361H161.022C161.022 153.204 161.101 152.89 161.101 152.577C161.022 150.93 160.238 149.284 158.122 149.284ZM156.711 151.95C156.789 151.401 157.103 150.617 157.965 150.617C158.906 150.617 159.141 151.479 159.141 151.95H156.711Z" fill="white"/>
<path d="M165.491 150.617L165.334 149.441H163.609C163.609 149.99 163.688 150.617 163.688 151.636V156.026H165.726V152.733C165.726 152.577 165.726 152.42 165.804 152.263C165.961 151.636 166.432 151.244 167.216 151.244C167.451 151.244 167.607 151.244 167.764 151.322V149.441C167.607 149.441 167.529 149.441 167.372 149.441C166.588 149.284 165.804 149.676 165.491 150.617Z" fill="white"/>
<path d="M172.938 151.95C172.154 151.636 171.841 151.479 171.841 151.166C171.841 150.852 172.154 150.617 172.625 150.617C173.173 150.617 173.722 150.852 174.036 151.009L174.428 149.598C174.036 149.363 173.33 149.206 172.546 149.206C170.9 149.206 169.881 150.147 169.881 151.323C169.881 152.107 170.351 152.812 171.762 153.283C172.546 153.518 172.703 153.675 172.703 154.067C172.703 154.38 172.468 154.615 171.841 154.615C171.214 154.615 170.43 154.38 170.116 154.145L169.724 155.634C170.194 155.87 170.978 156.105 171.841 156.105C173.722 156.105 174.663 155.242 174.663 153.988C174.741 153.047 174.193 152.42 172.938 151.95Z" fill="white"/>
<path d="M179.445 149.441H177.407V156.027H179.445V149.441Z" fill="white"/>
<path d="M178.426 146.619C177.799 146.619 177.329 147.09 177.329 147.638C177.329 148.187 177.721 148.657 178.426 148.657C179.132 148.657 179.524 148.187 179.524 147.638C179.524 147.011 179.053 146.619 178.426 146.619Z" fill="white"/>
<path d="M184.776 147.56L182.816 148.03V149.441H181.875V150.931H182.738V153.596C182.738 154.537 182.895 155.164 183.287 155.556C183.6 155.869 184.149 156.105 184.776 156.105C185.325 156.105 185.874 156.026 186.109 155.948V154.38C185.952 154.38 185.795 154.458 185.482 154.458C184.854 154.458 184.698 154.066 184.698 153.282V150.931H186.187V149.441H184.698V147.56H184.776Z" fill="white"/>
<path d="M192.067 152.655C191.988 153.047 191.832 153.517 191.753 153.909H191.675C191.596 153.596 191.44 153.047 191.361 152.655L190.42 149.441H188.147L190.577 155.399C190.656 155.555 190.656 155.634 190.656 155.712C190.656 155.791 190.577 155.947 190.577 156.026C190.342 156.339 190.028 156.653 189.715 156.81C189.401 156.967 189.088 157.123 188.853 157.123L189.244 158.848C189.715 158.77 190.499 158.534 191.204 157.986C191.91 157.359 192.537 156.261 193.478 153.674L194.967 149.362H192.851L192.067 152.655Z" fill="white"/>
<path d="M204.61 149.284C202.493 149.284 201.082 150.617 201.082 152.734C201.082 154.85 202.572 156.105 204.453 156.105C206.178 156.105 207.902 155.007 207.902 152.577C207.902 150.695 206.57 149.284 204.61 149.284ZM204.531 154.693C203.669 154.693 203.199 153.831 203.199 152.734C203.199 151.793 203.591 150.774 204.531 150.774C205.472 150.774 205.864 151.793 205.864 152.734C205.864 153.909 205.315 154.693 204.531 154.693Z" fill="white"/>
<path d="M211.665 147.011C211.038 147.56 210.803 148.422 210.803 149.206V149.441H209.94V150.931H210.803V155.948H212.841V150.931H214.174V149.441H212.841V149.128C212.841 148.501 213.155 147.952 213.782 147.952C214.017 147.952 214.252 148.03 214.409 148.03L214.487 146.462C214.174 146.384 213.86 146.306 213.39 146.306C212.919 146.306 212.214 146.462 211.665 147.011Z" fill="white"/>
<path d="M222.876 146.933L220.132 155.948H222.248L222.876 153.596H225.463L226.168 155.948H228.363L225.541 146.933H222.876ZM223.189 152.107L223.738 150.225C223.895 149.676 224.052 149.049 224.13 148.501C224.287 149.049 224.444 149.676 224.6 150.225L225.149 152.107H223.189Z" fill="white"/>
<path d="M232.675 150.617L232.518 149.441H230.793C230.793 149.99 230.872 150.617 230.872 151.636V156.026H232.91V152.733C232.91 152.577 232.91 152.42 232.989 152.263C233.145 151.636 233.616 151.244 234.4 151.244C234.635 151.244 234.792 151.244 234.948 151.322V149.441C234.792 149.441 234.713 149.441 234.556 149.441C233.851 149.284 232.988 149.676 232.675 150.617Z" fill="white"/>
<path d="M239.887 147.56L237.927 148.03V149.441H237.065V150.931H237.927V153.596C237.927 154.537 238.084 155.164 238.476 155.556C238.79 155.869 239.338 156.105 239.966 156.105C240.514 156.105 241.063 156.026 241.298 155.948V154.38C241.141 154.38 240.985 154.458 240.671 154.458C240.044 154.458 239.887 154.066 239.887 153.282V150.931H241.377V149.441H239.887V147.56Z" fill="white"/>
<path d="M246.786 151.95C246.002 151.636 245.688 151.479 245.688 151.166C245.688 150.852 246.002 150.617 246.472 150.617C247.021 150.617 247.57 150.852 247.883 151.009L248.275 149.598C247.883 149.363 247.178 149.206 246.394 149.206C244.748 149.206 243.729 150.147 243.729 151.323C243.729 152.107 244.199 152.812 245.61 153.283C246.394 153.518 246.551 153.675 246.551 154.067C246.551 154.38 246.316 154.615 245.688 154.615C245.061 154.615 244.277 154.38 243.964 154.145L243.572 155.634C244.042 155.87 244.826 156.105 245.688 156.105C247.57 156.105 248.511 155.242 248.511 153.988C248.589 153.047 248.04 152.42 246.786 151.95Z" fill="white"/>
<path d="M97.9146 19.7767H145.03C147.146 19.7767 148.871 18.1304 148.871 16.0138C148.871 13.8971 147.146 12.2508 145.03 12.2508H136.406V7.15518V7.07678C136.406 4.80334 134.525 2.92188 132.251 2.92188C129.978 2.92188 128.096 4.80334 128.096 7.07678V7.15518V12.094H116.102V7.23357C116.102 7.23357 116.102 7.23357 116.102 7.15518C116.102 4.88174 114.221 3.00027 111.947 3.00027C109.674 3.00027 107.792 4.88174 107.792 7.15518V12.094H97.7578C95.6412 12.094 93.9165 13.7403 93.9165 15.857C94.0733 18.052 95.798 19.7767 97.9146 19.7767Z" fill="white"/>
<path d="M152.556 80.6895C154.751 80.6895 156.633 78.6513 156.633 76.4562C156.633 74.2612 154.829 72.4581 152.634 72.4581H121.198V67.9896C121.198 66.8137 121.512 66.5785 122.609 66.5785H127.548C129.743 66.5785 130.606 65.3242 130.606 63.7563V61.7964C130.606 60.2285 129.351 59.3662 127.783 59.3662H117.357C114.77 59.3662 113.829 60.9341 113.829 62.6588V72.7717H93.6818H93.6034C91.4083 72.7717 89.5269 74.5747 89.5269 76.8482C89.5269 79.0432 91.3299 80.9247 93.6034 80.9247H152.634C152.478 80.6895 152.478 80.6895 152.556 80.6895Z" fill="white"/>
<path d="M143.619 89.8617C143.619 87.5882 141.816 85.7852 139.543 85.7852H106.382C104.108 85.7852 102.305 87.6666 102.305 89.8617C102.305 92.1351 104.108 93.9382 106.382 93.9382C106.46 93.9382 106.46 93.9382 106.538 93.9382H139.386C139.464 93.9382 139.464 93.9382 139.543 93.9382C141.816 94.0166 143.619 92.1351 143.619 89.8617Z" fill="white"/>
<path d="M80.4329 55.1328H135.936C141.737 55.1328 145.187 51.7619 145.187 46.1958V31.8497H149.734V45.8039C149.734 50.1156 151.537 53.8785 157.573 53.8785H165.413C167.529 53.8785 169.254 52.1538 169.254 50.0372C169.254 47.9205 167.529 46.1958 165.413 46.1958H165.334H159.611C158.2 46.1958 157.808 45.5687 157.808 44.0792V34.907C157.808 28.4787 154.045 24.2454 147.774 24.2454H123.785V30.8305C123.785 34.7502 122.374 36.1613 118.062 36.1613C116.965 36.1613 115.789 36.1613 114.299 36.1613C111.947 36.1613 111.791 37.4157 111.791 38.5132L111.712 40.473C111.712 42.5113 113.28 42.9033 114.535 42.9033C114.535 42.9033 126.686 42.9033 126.764 42.9033C130.213 42.9033 130.684 41.9625 130.684 39.1403V32.0064H137.582V43.5304C137.582 47.3718 136.642 48.7829 132.722 48.7829H110.38C106.068 48.7829 104.735 45.6471 104.735 43.2952V35.691C104.735 32.2416 107.165 30.7521 111.085 30.7521C111.556 30.7521 113.672 30.7521 114.064 30.7521C115.946 30.7521 116.416 30.2818 116.416 28.4787V24.167H91.0946C88.9779 24.167 87.2532 25.6565 87.2532 27.7731C87.2532 29.8898 88.9779 31.5361 91.0946 31.5361H97.5229V35.9262H84.6662C82.5496 35.9262 80.8249 37.4157 80.8249 39.5323C80.8249 41.649 82.5496 43.1385 84.6662 43.1385H97.6013V47.5285H80.4329C78.3163 47.5285 76.5132 49.1748 76.5132 51.2915C76.5132 53.4081 78.2379 55.1328 80.4329 55.1328Z" fill="white"/>
<path d="M105.911 62.8939C105.911 61.6395 106.068 59.9149 106.538 59.6797H85.3715C83.0197 59.6797 81.1382 61.5612 81.1382 63.913C81.1382 66.2648 83.0197 68.1463 85.3715 68.1463H85.4499H107.008C105.754 67.9111 105.911 64.6185 105.911 63.2858V62.8939Z" fill="white"/>
<path d="M159.455 67.5975C161.807 67.5975 163.688 65.716 163.688 63.3642C163.688 61.0123 161.807 59.1309 159.455 59.1309H137.426C138.053 59.366 138.21 61.0123 138.21 62.345V62.8154C138.21 64.1481 138.367 67.3623 137.112 67.6759H159.376C159.376 67.5975 159.455 67.5975 159.455 67.5975Z" fill="white"/>
</g>
<defs>
<clipPath id="clip0">
<rect width="250" height="155.927" fill="white" transform="translate(0 3)"/>
</clipPath>
</defs>
</svg>
