<svg id="圖層_1" data-name="圖層 1" xmlns="http://www.w3.org/2000/svg" viewBox="0 0 416.55 1133.86">
  <defs>
    <style>
      .cls-1 {
        fill: #fff;
      }
    </style>
  </defs>
  <g>
    <path class="cls-1" d="M151.39,77.71c-2.27-8.5-4.1-17.15-6.95-25.45-2.51-7.27-2.82-13.35,5.21-18-4.26-5.42-6.84-10.87-1.05-17.27l4.79,4c4.26,0,7.34-.64,10,.12,7.73,2.21,11.94.18,16-6.61,1.37-2.32,5.46-3.84,8.48-4.19a78.7,78.7,0,0,1,16.09.2c2.5.23,4.86,1.83,7.29,2.81-1.75,1.62-3.49,3.26-5.25,4.86-2.07,1.87-4.82,3.34-6.12,5.64-2.9,5.16-6.38,7.25-12.57,6.3-4.72-.72-9.74.51-16.91,1l8.87,9.7-13.07,6.79c9.25,8.53,9,10.07-2.58,22.38l-5.48-6.48-2.36,1c3.21,6.45,6.42,12.89,9.87,19.84l7.19-.72c-.53,2.77-.94,4.94-1.29,6.77l8,3.83-6.38,16.4,1.28,1.29,8.75-9.4c13.44,3.88,2.38,16,7.29,23.51,1.4.46,3.89.59,5.24,1.9a7.59,7.59,0,0,1,1.9,5.66c-.17,1.4-2.28,3.67-3.54,3.68-11.37.1-13.71,9.32-17.32,17-2.48,5.28-4.11,11-6.12,16.46l-3.59-.39c-3.32-10.14-6.6-20.29-10-30.41-.45-1.35-1.15-3.3-2.14-3.59s-2.63,1-3.77,1.83c-2.45,1.86-4.76,3.91-9.22,7.63V117.43c-6.7,6.36-8.57,11.37-5.72,18.23,4,9.57-4.07,20.65-14.08,21.48-3.62.31-7,4-10.27,6a15.19,15.19,0,0,1-1.75-1.11c-2-1.8-3.87-3.63-5.81-5.45q-1.48,2.2-3,4.39c2.29,1.52,4.43,3.95,6.91,4.36,6.08,1,11,2.4,12.33,9.65.3,1.72,3.12,3.29,5.1,4.33,3.64,1.92,7.51,3.39,12.36,5.52,2.42-2.69,1.4-5.53-3.21-7.91-7.29-3.76-7.46-5.79-.82-12.78,4.72,8,11.44,4.9,17.44,2.44,4.35-1.79,6.6-2.21,8.78,2.83,3,6.86,11.71,7.32,16.47,1.29,1.16-1.48,1.61-4,3-4.69,3-1.37,6.51-2.5,9.71-2.27,1.17.09,2.89,4.32,2.9,6.67,0,21.53.08,43.08-.79,64.58-.17,4.16-4.34,8.15-6.92,12.67,6.93.55,7.62,5.94,7.56,11.47-.48,44.39-1.21,88.78-1.55,133.18-.19,25.31.37,50.63.31,76-.07,30.24-.19,60.49-.92,90.72-.12,5-3.44,10-4.9,13.92,1.21,1.25,3.57,2.56,3.94,4.3a56.92,56.92,0,0,1,1,12.18c-.17,31.34-.45,62.68-.68,94-.26,34.86-.45,69.72-.78,104.57-.09,10.61-.53,21.21-.82,31.81a2.22,2.22,0,0,1,0,.82c-2.22,5.38-7.36,11.74-6,15.9,1.7,5,6.93,9.09,6.08,15.65-.62,4.74-1,9.51-1.57,14.26a15.91,15.91,0,0,0-.5,2.37c.54,11.32,1.43,22.63,1.59,34,.06,5-1.86,9.92-1.93,14.9-.09,6.29,1,12.58,1.21,18.88q.52,18.33.48,36.67c0,1.91-1.13,4.88-2.59,5.57-10.92,5.13-8.72,14.33-7,23.45,1.45-4.7,2.91-9.4,4.7-15.17l10.45,20.76c4.82-5.9,3.53-11.64-1.87-14.33-2-1-3.11-3.7-4.62-5.62,1.93-1.48,3.75-4.07,5.8-4.26,12.47-1.2,25.32-4,37.42-2.19,18,2.73,35.19-2.09,52.75-1.33,2.44.1,4.76,3,7.89,5.12,2.43-1.08,6.48-3.39,10.84-4.74,12.49-3.88,15.34-1.19,14.19,13.45l-10.37-2.44c1.71,11.19,3.22,21.11,4.74,31l3.25-.21c0-6.12-.22-12.25.11-18.35.13-2.47,1.27-5,2.32-7.29s3.94-4.79,3.79-7c-.67-9.81,5.95-11,12.78-11,9.92.07,19.82,1.19,29.73,1.66,2.09.1,4.21-.95,6.34-1.08,10-.62,20.08-1.4,30.13-1.38,1.74,0,5,3.54,5,5.46,0,12.75-.52,25.52-1.21,38.26-.11,1.92-1.61,4.88-3.14,5.41-8.59,3-5.13,8.83-2.64,13a42.71,42.71,0,0,1,5.81,25.82,12.75,12.75,0,0,1-.92,2.89l-2.43,0v-17.87l-3.27-.43q-5,13.68-10,27.37c6,1.83,5,14.31,16.53,11L390.84,1105l10-1.3v8.07l-6.95-.64-1.61,2c1.23.45,2.73.6,3.63,1.42a27.77,27.77,0,0,1,4.43,5.29c.15.22-2,2.59-2.38,2.42a33.91,33.91,0,0,1-5.83-3.87c-.74-.59-1.13-1.63-2.79-4.16.05,8.45-3.93,10-9.94,9.76-7.81-.27-15.64.42-23.46.33a6.37,6.37,0,0,1-4.48-2.64c-4.08-6.47-8.42-3.38-12.21-.23-6.07,5-15,6.11-22.92,2,.18-.49.23-1.27.56-1.41,2.84-1.25,8.07-2.14,8.22-3.59a147,147,0,0,0,.11-22.7c-.14-2.74-1.53-5.42-3-10.34l15.07,7-5.81,10.37c1.52,2.58,3.91,6.67,6.22,10.61l12.63-7.22c0-4.64.91-8.29-.22-11.14-1.58-4-4.07-9.68-7.25-10.51-6.72-1.77-14.14-.85-21.27-1l.2.23c-.27-2.45-.06-6.79-.92-7a16.9,16.9,0,0,0-9.08.31c-5.14,1.67-9.88,4.85-15.09,5.94-2.48.52-6.74-1.61-8.24-3.85-1.61-2.39-.94-6.33-1.26-9.59,2.63,1.1,5.18,2.54,7.92,3.2a22.5,22.5,0,0,0,6.66.12c.52-8.53,8.15-7.39,12.39-7.4,9.11,0,9.3-4,7-10.6a29.42,29.42,0,0,1-.76-5.17c-2.57-.16-5,0-7.26-.53-5.84-1.49-7.27,1.51-5.37,5.94,2.46,5.69-1.18,8.27-4.88,9s-7.91-1-11.89-1.62c1.29-3.16,2.46-6.38,3.92-9.47,1.18-2.47,2.71-4.78,4.91-8.6l-12.26,2.15v14.67l-11-4.17c-4.95,5.63-11.08,10.41-14.1,16.68-2.78,5.79-2.21,13.19-3.15,20.14-9.42.77-11.72-9.25-17.83-13.52l-1.88,1.48c1,2.16,1.4,4.91,3,6.37,5.28,4.77,8.91,9.69,8.72,17.54-.13,5.67-4.49,16.39-11,19.68-.61-4.3-1.09-8.36-1.83-12.38-.21-1.17-1.14-2.22-1.74-3.33-1.24.76-3,1.23-3.59,2.34-1.35,2.65-1.42,6.23-3.28,8.26-2.23,2.41-5.8,3.6-8.79,5.32-1.06-2.62-2.17-5.21-3.15-7.85a5.54,5.54,0,0,0-2.38-3.49c-.85,2-1.85,4-2.53,6.08-2.3,7.09-6,8-11.78,3.7-6.09-4.51-12.6-1.94-18.26,1.17-7,3.86-11.33,2.42-12.08-5,9.44-.68,11.49-3.71,9.71-14-.58-3.34-.82-6.73-1.21-10.1l3.53-.84,6.08,16c2.4-1.65,5.44-2.69,6.28-4.67.53-1.28-2.36-3.83-3.38-6-2.19-4.56-4.16-9.23-6.77-15.1l-17.35,6.91c10.64,12.8-4,18.42-4.12,27.7l-2,.4-23.07-24.71c2.29-6.93,5-14.2,6.93-21.67.4-1.55-2.09-3.84-3.51-5.55,3.11,12.31-7.18,20.51-8.63,31.8l-7.83-3.15c-2,3.66-3.78,7.05-5.32,9.92,3.19,1,8.45,1.36,8.84,2.94,1.16,4.73,1.73,10.51-.12,14.71-1,2.29-7.4,2.22-12.42,3.47l2.3-14.57c-7.41,5.46-12.56,11.59-18.91,13.31-6.64,1.79-14.42-.67-21.7-1.27l0-3,5-2.35c-.35-.87-.71-1.74-1.07-2.62-2.28,1.15-5.21,1.75-6.7,3.55-3.6,4.33-15,7.68-18.76,4.27-4.87-4.42.57-7.69,2.78-10,7.86-8.34,8.54-10.68,1.86-21.16a61.59,61.59,0,0,1,.43,6.9,19.2,19.2,0,0,1-1.21,4.33c-1.63-.6-4.61-1.1-4.65-1.81-.25-3.62-1.14-9.12.78-10.59,5.09-3.91,4.09-6.73.54-10.81l-5.25,4.7c-2.15-7-3.55-13.11-11.61-15.23-5-1.32-7.88-19.82-4.38-24.16,1.16-1.44,4.06-1.47,6.16-2.15a42,42,0,0,1,.88,5.52c0,1.41-.47,2.84-.89,5.13,8.8-7.82,8.43-8.78-5.5-18.69-1.16-21.84-2.29-43-3.49-65.48l8.57,3.35c-.56-1.9-.53-3.52-1.31-4.16a41,41,0,0,0-5.81-3.45L31.72,969c0-15.42.17-30.85,0-46.26-.3-22.58-1.19-45.15-1.25-67.73-.08-28.25.72-56.51.56-84.76-.14-24.24-1.4-48.48-1.62-72.72-.18-20.39.7-40.78.59-61.17-.08-16.07-1.3-32.13-1.4-48.19-.28-45.52-.25-91-.34-136.55-.06-31.29,0-62.58-.23-93.87-.17-24-.92-47.95-1-71.93-.18-39.75-.27-79.5.06-119.25.13-15,1.69-29.9,2.24-44.85.21-5.41-1-10.87-.82-16.29.08-2.59,1.84-5.12,2.84-7.69,2.44,1.82,5.2,3.35,7.21,5.56,1.34,1.48,1.61,3.93,2.61,6.6,5.07-4.87,8.89-4,13.09,1.17,2,2.42,6.35,2.87,9.65,4.21l1.48-2.43-10.19-8c2.74-6.11,5-11.16,7.71-17.19C70.09,90.69,68,99.79,72,105.18c5.93,7.95-8.07,11.92-4.36,18.83,12.11-1.52,22.82-5.47,20-22.59l2.68,0,7.85,8.37L115,95.43c3.44,3.75,5.29,8.23.42,12.71-10,9.16-10,13.23,1.31,23.93,3.13-4.29,9.94-6.47,6.29-14a7.44,7.44,0,0,0-1.31,0c-3.06.91-5.48,7.6-9.17,2-3.48-5.3,1.55-8,5.28-9.93,9.7-5,9.8-4.84,13.29-16.14,1.19.27,2.46.93,3.63.77,10-1.33,11.55,2.17,6.35,10.29-.37.57,2,4.19,3.08,4.16,6-.17,7.33,3,7.4,8.19,0,1.62,2.47,4.68,3.54,4.57,11.71-1.21,7.77,8.73,9.89,14,1.33,3.29.9,7.29,1.28,11.21,12.78-5,13.36-10.66,5.71-20.07-7.46-9.16-12.86-20-18.87-30.29-.9-1.53-1.06-5-.07-5.87,6.44-5.67,1.87-9.42-1.84-13.46Zm205.13,997.05,4.52,7-7.37,32.49,1.88.83,5.64-6.43,10.32,9.28c1.37-4.73,2.27-8.06,3.3-11.35s2.17-6.52,4-11.86c-8,5.22-10.34.41-12.42-4.14-.63-1.4.12-3.42.24-5.16a36.55,36.55,0,0,1,4.91,1.59c3.32,1.62,6.54,3.46,9.8,5.2-.16-4-1.42-6.09-1.79-8.29a91.78,91.78,0,0,1-1.16-12.28c-.11-3.27.31-6.56.5-9.74-1.54-2.13-5.32-5-5.13-7.59.54-7.49-2.05-12.19-9.18-15.11l-2.82,3.68c-8.26,10.83-16.86,10.56-24.49-.8-1.93-2.88-3.4-6.18-5.79-8.6-1.4-1.42-4.95-2.73-6.2-2-3.7,2.3-6.75,5.66-10.53,9l13.5,10c1-3.18,1.85-5.67,2.66-8.16l2.3-.84c2,12.68,8.83,20.73,20.41,24.92,1.76.64,2,5.48,2.93,8.38Zm-134.17-38.48L219.8,1047l-2.45-.14q-1.92-3.74-3.82-7.47l-1.92.65c.62,3.27.77,6.73,2,9.72.75,1.78,3.25,2.82,5,4.19,1.18-1.58,3.15-3.06,3.37-4.77.55-4.24.3-8.58.36-12.88-7.21-16.42-12.09-15.64-21.53-9.91,1.19,4.24,2.4,8.59,4.25,15.22l-11.82-6.21-1.74,1.48c2,2.72,4.2,5.36,6.09,8.18,1.53,2.28,4.45,5.56,3.78,7-2.14,4.68-5.68,8.73-7.34,11.11l-14.32-2.77c-1.56-4.84-3.72-11.56-5.88-18.29l-1.88.16q-.41,7.77-.82,15.53l-2,.08-15.83-22.59c-1.11,1.85-2.41,4-3.71,6.23l-7.88-9.85c-1.73,8.71-2.3,9.08-11.62,3.62,6.22,7.59,6.85,13.34-3,16.55,6.47,5.07,10.34,2.71,14.12-5.22,1.83,7,3.05,11.66,4.26,16.31,12.48-3.21,14.59-2,15.91,10,.37,3.33-1.26,6.84-1.72,10.31a26,26,0,0,0-.05,4.62c7.06-2.6,13.18-5.1,19.45-7.09,10.69-3.39,13.53,4.13,14.68,13l7.9-18.49,3.85,6.74c7.31-3.29,8.7,5.27,13.8,6.41l-2.06-15.19,2.86-1.24c3.78,5.42,8.16,10.53,11.12,16.37,1.9,3.75,1.08,7.73-4.81,8.94-6.3,1.29-7.61,8.44-1.77,15.68-.44-11.38,6.16-14.45,14.66-15.67,1-.15,1.78-2.49,2.65-3.81-1.43-.42-2.85-.9-4.3-1.24-1-.22-2-.23-4.62-.51,2.91-16,5.72-31.35,9-49.08l18.07,20.21c-.48-2.51-1.08-5-1.43-7.6-1.52-11.17-14.71-12.08-18.82-21.15-.35-.77-5-.17-7.24.82-.73.33-.35,4,.11,5.92.52,2.17,3,4.75,2.41,6.17-3.19,7.34-7.11,14.37-10.7,21.37l-12.26-7.32c-3.76,11.15-8.62,13.94-22.48,12.35l11.8-10c.57-10.88,7.18-28.1,12.69-32.83C217,1032.55,219.67,1034.39,222.35,1036.28ZM67.4,996l1.56.86c1.28-1.17,2.37-2.8,3.87-3.44,8.22-3.49,8.45-4.66,2.57-11.46A20.7,20.7,0,0,1,71,974.39c-.4-1.4,1.54-3.45,2.42-5.2,1.3,1.14,2.93,2.07,3.8,3.48,1.08,1.76,1.53,3.92,2.25,5.9,1.37-4.08,1.47-7.68,1.82-11.26a47.3,47.3,0,0,1,1.23-5.59c-1.72.15-3.44.42-5.16.43s-4.33.38-4.88-.48a5.53,5.53,0,0,1,.2-5.11c2.4-3.16,5.42-5.85,8.64-9.2-.42-.37-1.89-2.4-2.52-2.17-7.7,2.86-8-4-10.53-7.78l-7-10.32-3.39,2.63a78,78,0,0,0,5.6,6.27c7.24,6.57,6.87,9.58-.86,15.31-3.23,2.39-5.35,6.28-8,9.52,3.22,2.42,5.81,3.58,7.21,5.58a159.9,159.9,0,0,1,9,15c2.12,3.89,4.33,8-1.94,10.69C68,992.46,67.9,994.64,67.4,996Zm19.44-65.9c2.26,12.93,4.27,24.47,6.6,37.82.36.77,1.68,3.57,3,6.37l-9.23,3.07c.68.46,1.75,1.28,2.91,1.94,9.41,5.36,10.52,9.17,6.24,18.88-1.43,3.25-1.73,7-2.65,11H103c0-8.44,2.29-17.37-.58-24.1-3.5-8.17-3.75-14,2-19.2-2.71-1.47-5.27-2.24-6.78-3.94-.8-.9-.36-3.78.51-5.14,3-4.64,6.39-9,9.88-13.8l-7.32-2.51-8.43,7.1V927.12Zm62.27-559.61,3,1c3.82-6.11,7.69-12.17,11.35-18.36.4-.67-.43-2-.64-3.08-1-4.76-1.88-9.53-2.82-14.29a30.55,30.55,0,0,1-5.7-9.61c-2-5.21-3.62-10.55-5.66-16.57l-14.08,12.39c19.78,5.09,1.69,12.57,3.31,18.67,2.83-.77,5.7-1.58,8.59-2.33s5.65-1.4,8.48-2.1c.76,4.19,2.19,8.4,2,12.56-.1,2.67-2.86,5.15-3.84,7.92C151.55,361.18,150.43,365.87,149.11,370.49Zm-44.37,84c-7,4.29-8.84,10.85-5.36,16.82,3.63,6.23,2,10.6-1,15.66-1.43,2.38-2.6,4.92-3.66,6.95l13.54,6c1.3-10.83,2.73-22.83,4.17-34.84l2.06.21Zm7.33,480.6c0-6,1.77-12.8-.31-14.33-8.48-6.21-7.27-14.75-8.62-23.19C102,890.3,98.45,883.38,96,876.28c-.73,10,1.39,19.31.11,28.13C94.18,917.41,98.17,928.44,112.07,935.13Zm-1.72-133.21a26.26,26.26,0,0,1,3.07-5.6c1-1.18,3.38-2.25,4.62-1.83s2.78,2.68,2.87,4.2c.33,5.9.13,11.83.13,17.75,3.26-5,7.29-8.07,5.28-15.93-2.78-10.87-14.33-15-15-26.37-2.25,3-4.71,5.7-4.48,8.21C107.46,789.24,109.22,796,110.35,801.92ZM63,1002.43l-10.72,9.06-2.09-8.44c-4.49,6-7.09,11.13-.41,15.53l9.12-8,2.36,1.81a44.37,44.37,0,0,0-2.22,7.15,4.92,4.92,0,0,0,1.55,3.87c.69.58,3.39.19,3.54-.29,1.27-3.92,3-8,2.85-12C66.83,1008,64.23,1005,63,1002.43Zm45,69.51c-9.76,6.56-9.73,7.14-.06,20.69,9.55-4.12,14-13.14,10.83-21.7-4.62,11-4.62,11-10,12.15C108.52,1079.67,108.3,1076.34,108,1071.94Zm45.39-123.8c13.2,1.21,15.76-1.54,11.58-11.28-2.46-5.75-6-11.06-9.13-16.5-.23-.39-1.43-.22-3.67-.48,1.14,4.7,1.31,9.2,3.28,12.69C158.64,938.19,162,943.14,153.4,948.14ZM96.84,213.86c7.6,2.44,13.16,8.58,16.9,1.78,3.58-6.54-.84-12.91-6.4-17.82C103.19,202.75,112,213.35,96.84,213.86ZM75.94,345.8l.78,6.16-14.19,6.25c5.53,1.63,9,3.48,12.32,3.39,3.14-.09,6.22-2.25,8.7-3.25ZM221,999c-4,2.17-7.88,3.27-10.07,5.84-2,2.35-2.12,6.3-3.07,9.55l2.3.6,15.54-7.8ZM147.06,244.62c8.75,0,14.15-2.09,14.13-9.46,0-1.3-5.9-2.58-9.08-3.87C150.51,235.52,148.91,239.75,147.06,244.62ZM102.53,146c.15-2.33.38-5.85.61-9.46-3.24-.22-6.39-.12-9.37-.76-1.79-.39-3.34-1.93-5-3a36.54,36.54,0,0,0-.45,6.48,24.7,24.7,0,0,0,1.38,5.11Zm280.92,870.75c.28-1.13.86-2.33.6-2.55-5.79-4.93-11.68-9.76-17.53-14.58-1.11,2.48-1.11,2.48,3.74,13.75ZM106.69,248c-15.92,8.37-16,8.45-14.38,14.76,8-7.85,8.42-7.84,18.17.41C109.24,258.17,108,253.34,106.69,248ZM84.51,442.5c.92-3.5,2.86-6.93,2.32-9.9-.57-3.14-3.51-5.85-5.42-8.74C79.59,430.88,74.55,437.56,84.51,442.5ZM58.64,205.15c1.37-7.9,1.84-14.38-5.37-19.05C49.42,193.61,51.3,201.16,58.64,205.15Zm89,820.66,6.75-9.65-19.74-5.33ZM118.29,244.73l-1.55,1.65c2,1.71,3.74,4.1,6.05,4.89,1.4.48,4.58-1,5.35-2.49,2.77-5.25,4.86-10.86,7.21-16.33l-2.13-1.26c-2.09,3.84-4.93,7.47-6.1,11.57C125.12,249.73,122.41,249.41,118.29,244.73ZM78.11,866.54c-.39-1-1.28-3.43-2.52-6.73-2.68,6.54-6.77,7.34-11.52,3.94l-6.47,8.67c4.7-.35,8.29-.06,11.52-1S74.93,868.33,78.11,866.54Zm128.9,225c-3,4.35-5.25,6.4-5.72,8.8s.63,5.19,1.7,7.52c.32.7,3.82,1,4.16.45a14.68,14.68,0,0,0,2.52-7C209.72,1098.89,208.4,1096.38,207,1091.57ZM88.89,400.63l12.61,3.25c.46-.47.92-.95,1.39-1.42L94.12,389.6ZM168,192.26c-2.45-3.18-5.08-6.6-8.12-10.57l-6.75,10.57ZM83.36,833.64a87.65,87.65,0,0,0-2.13,9.12c-.26,1.77-.08,4.79.89,5.28,1.87.94,4.44.49,6.72.61.06-2.22.84-4.77,0-6.59C87.34,838.76,84.88,835.9,83.36,833.64Zm9-650.71c-6.84,1.85-2,15.61-13.79,11.08l.24,2.39,12.4,2.34C91.68,192.37,92,188,92.37,182.93Zm42.5,605,2.74-1.9c-2.65-4.5-5.12-9.12-8.06-13.41-.75-1.1-3-1.17-4.55-1.71.34,1.8.27,3.84,1.12,5.35,1.38,2.43,3.38,4.49,5.09,6.73C132.45,784.66,133.65,786.32,134.87,788ZM74.67,678.15c-5.32,2.62-4.82,7.05-1.89,9.8s7.72,3.92,10.91,5.41C81.23,689.22,78.17,684,74.67,678.15Zm61.1,159.57L128.41,832,121,840.76c.42.84.84,1.67,1.25,2.51Zm243.05,187.07-3.16,1.88,6.81,10q3.52-4.32,7-8.63l-1.94-1.66-4.85,4.28Zm-281-690,9.13-7.68-10.66-8.88C96.92,324.76,97.39,329.85,97.84,334.74Zm30.78-42.69c5-4.82,5.29-18.26,1.26-24.07C129.48,275.62,129.07,283.59,128.62,292.05Zm-2.55,746.16-13-7.68c.93,4.79,1.87,9.67,2.57,13.31Zm8.69-824c-2.38-5.59-3.56-10.06,4.43-11.36.7-.11,1-2.49,1.54-3.82-1.13-.39-3-1.39-3.28-1.06-3,3.67-5.78,7.54-8.72,11.51Zm-59,330.33.69-2c-9.41.23-8.12-6.65-8.52-12.41l-2.24.64c.5,5.51,1,11,1.59,17.82ZM145.18,674l-4.07-3.79-7.45,13,1.37.45Zm-9.79,299.63c-.57.48-1.15,1-1.73,1.42l4.5,12.24,7.11-7.61Zm17.79-261.09-5.3-.29V727l1.71.11C150.71,722.54,151.83,718,153.18,712.55ZM135.8,946l3,.11a112,112,0,0,0-1.1-12.19c-.18-1-2.65-1.55-4.88-2.74ZM52.71,129.49c-10.19-.73-7.28,8.17-11.11,11.88l2.46,1.85Zm103,940.67-2.89-.14v18.09l1.09,0Zm-71.29,10.43,4.37-.33-2.28-13.69-3.81.5Q83.51,1073.84,84.37,1080.59ZM182,1013.87v20.24C184.55,1027.58,189.69,1021.05,182,1013.87ZM59.8,1057.67c.48,5.85.85,10.38,1.22,14.93h8.55C66,1067.19,63.1,1062.73,59.8,1057.67ZM50.65,845l7.9,3.27c.5-4.47.9-8,1.29-11.45l-2-.54Zm60.6-24.18,1.47-2.25q-2-3.88-4-7.76l-2.53.18c-.47,2.46-1.87,5.28-1.1,7.26C105.67,819.67,109.1,820,111.25,820.81Zm-32-602.52,3.34-1.73-7.11-11.09-2.73,1.71Zm75.93,778.77c.36-.59.73-1.17,1.09-1.75-.26-3.25-.34-6.53-.9-9.72a5.19,5.19,0,0,0-2.45-3.24c-.52-.29-2.95,1.47-2.86,1.72C151.64,988.45,153.45,992.75,155.21,997.06Zm-87-831.17V178.3l7.2-5.63Zm10.29,751h-2.3l2.28,21.31,1.93-.12Q79.43,927.47,78.48,916.88Zm-18.84-627,2,.12c.37-2.12,1.78-5.23.9-6.16-1.85-1.95-4.91-2.75-9.07-4.82ZM83.15,792.41h1.6l3.51-11.27H82.57Zm44.22,154.51c-.36,6.33-.6,10.52-1,16.77l7.18-5.75Zm.34-368.5c-6.76,1.92-6.92,3.51-1,14.11C127.07,587,127.38,582.79,127.71,578.42ZM357.87,995.91c-.21-4.63-.34-7.47-.5-11l-8.84,2.43C352.13,990.67,354.4,992.75,357.87,995.91Zm-96.14,35.69c-.32,4.79-.5,7.43-.74,11.1l10.18-4.07Zm-92.05-42.4c.87-4.82,1.51-8.4,2.16-12l-2-1.05-5.69,4.34ZM84.91,770.06c6.74-9.64,6.74-9.64.52-11.78C85.25,762.38,85.08,766.22,84.91,770.06ZM122.5,610.54c3-8.49,2.22-9.54-6.83-9.35Zm-18.69,448.92,5.09,11.26,4.42-11.26Zm152-37.12c7.2-2,7.45-3.12,4.2-14.3ZM151.41,182.43l.55-4.25-6.9-1.47-1,5.72Z"/>
    <path class="cls-1" d="M411.1,38.88c-.56-.88-.93-2.09-1.74-2.56-2.6-1.52-5.36-2.77-8.05-4.12-.77,2.62-2.64,5.48-2.12,7.81,2,9,2.31,8.82-6.12,7.47-1.16-.19-3.57,1.07-3.67,1.86-.22,1.95-.09,4.73,1.13,5.85,1.38,1.29,4.66,2.2,6.11,1.42,3.24-1.74,5.6-5.06,8.79-6.92,2.63-1.53,5.94-1.87,8.95-2.74.25,3,1.57,6.51.52,9-1.84,4.36-2.79,7.88.43,12,1,1.27,1.12,3.83.67,5.54-3.69,14,1.23,27.84.11,41.72-.57,7-1.1,14.22-3.23,20.84-1,3.22-5.69,5.29-10.12,9.08,1.72,1.27,4,4.38,6.49,4.49,4.52.22,5.74,2.09,5.71,6-.07,7.9-.17,15.8-.12,23.7,0,5.52-2.39,7.75-8,7.52-18.49-.79-37-1.5-55.49-1.79-7.74-.12-11.77-2.34-9.14-11.38-4.38,6.19-7.95,13-16.58,11.94-29.11-3.51-58.31-1.49-87.48-1.88a266.83,266.83,0,0,1-34.84-2.56c-3-.45-7.09-5.14-7.64-8.41-.93-5.39.61-11.2,1.19-17.63a8.39,8.39,0,0,1-2.46-1.78c-2.22-2.79-4.21-5.76-6.29-8.66,4.57-1.92,8.18-6.62,14.4-3.32,2.4,1.28,6.19-.07,11.76-.33-8.94-6.34-11.79-11.88-6-19.75,1.18-1.58-.4-7.75-2.15-8.51-9.06-3.92-2.48-8-.53-11.79.81-1.57,2.67-2.72,4.26-3.74,5-3.2,8.31-1.45,8.55,4.63.11,2.62-.24,5.25-.43,8.78L224,107.9c.58-5.52,1.12-9.6,1.38-13.69A48.94,48.94,0,0,0,225,88c-.11-1.56-.86-4.08-.2-4.52,6.84-4.61,3.14-12,5.1-17.54,3.77-10.61,9.84-20.51,21.9-28.8-.64,9-.87,15.87-1.89,22.56-.13.9-4.23,1.19-7.16,3.41,3,.64,6.18,2.13,9.06,1.71,3.59-.52,6.94-2.61,12.48-4.88-1,3.87-1,6.65-2.32,8.1-6,6.41-12.37,12.43-18.62,18.6l37.37,6.12,1.67,2.44-9.09,3.73,1.77,2.21,13.37,5.9a18.59,18.59,0,0,0,1.24-2c-6.91-5.75-4.62-14.55-7.06-21.76-.68-2,.38-4.68.82-7,1.11-5.8-1.54-8.06-7.21-6.52a48.13,48.13,0,0,1-9.76,1.15c-.11,0-.94-3.24-.48-3.55,3.14-2.12,6.52-3.89,9.86-5.71a5.24,5.24,0,0,0,2.7-2.41l-4.93-1.51c-2.45-.74-6.69-1-7-2.3-1.09-4.22-2.22-9.52-.5-13,1.39-2.87,6.71-4.25,10.56-5.23,1.17-.3,3.44,2.75,4.85,4.55,1.72,2.18,2.95,4.73,4.58,7,1.8,2.5,4.84,4.58,5.52,7.31,1.41,5.6,3.95,5.35,8.31,3.51,2.57-1.09,7.3-2.15,8.21-1a10.79,10.79,0,0,1,1.38,8.89c-1.19,3.54-4.23,6.46-6.48,9.64l-2.25-1.19c-.1-2-.2-3.93-.36-7.33-2.1,1.55-4.84,2.65-4.83,3.73a49.21,49.21,0,0,0,1.61,12.68c1.53,5.51,5.4,4.66,9.77,3.13,1.3-.46,3.71,1.52,5.29,2.78a32.19,32.19,0,0,1,3.81,4c4.1-8.61,5.92-19.35,12.19-23.74C335.49,66,337.09,59,341.08,52.18a25.52,25.52,0,0,0,3.73,2.55A27.86,27.86,0,0,0,349,55.8c.16-1.73,1.11-4,.34-5.09-3.27-4.55-6.59-9.26-10.78-12.89-4.54-3.94-10.05-6.73-15.59-10.32,1.46,5.4,3,10.77,4.35,16.18,1.3,5.21.27,8.41-6.24,8.15-4-.17-8.05,1.61-12,1.33-2.08-.14-5.51-2.72-5.62-4.39-.18-2.56,2-5.28,3.15-7.92,1.83,1,3.61,2.25,5.53,3.12a21.52,21.52,0,0,0,4.19,1c.24-1.25,1.11-3.07.59-3.66-2.54-2.89-5.72-7.92-8.18-7.65-7.22.79-9.41-2.12-9-10.73-4.62,7.47-3.86,16.3-15.45,18.38l7.29-15.47-7.41,2.73c-.54-2.7-1.11-5.39-1.63-8.1C280.63,10.29,286.64,9,294.39,10.25c8.42,1.32,16.75,3.35,25.2,4.33,3.28.38,6.77-1.33,10.19-2,7.35-1.43,13.46-.28,17,7.4,2.27,4.89,6.08,5.57,10.56,2.87-.09-.94.06-1.65-.22-1.93-1.88-1.84-3.84-3.58-5.77-5.35,2.95-.35,5.91-1,8.86-1,7.63.11,15.27.48,22.9.86,10.32.51,20.65,1.13,32.39,1.78-3.32,6.62-7.29,11.15-.43,15.11.71.41-.77,4.6-1.23,7ZM388.82,69.49c-14.94,6.92-15.84,6.91-22.38-.55-.65,4.45-1.28,8.86-1.76,12.16-3.74.84-6.51.93-8.62,2.15-1,.59-1.48,4.63-1,4.9,8.4,4.58,4,9.65,1.08,13.22l12,5.59-8.48,5.45,11.42,2.77c2-8.38,5.48-16.33,5.46-24.26C376.54,80.88,383.58,76,388.82,69.49Zm-94,79.33,2.53-.28c.75-2.53,1.06-5.35,2.42-7.5.94-1.48,3.36-2,5.11-3,.42,1.64.82,3.28,1.27,4.9.78,2.79,1,5.93,2.52,8.27,2.39,3.77,5.6,7,9.8,12.1,2-6.55,4.06-12.27,5.32-18.16.27-1.28-2.31-3.18-3.51-4.7l-7.33,6.09c.57-7.22,1-12.19,1.27-16-3.52,1.71-7.26,3.86-11.23,5.37-3.22,1.22-8.47.68-9.64,2.73C292,141,294.13,145.33,294.78,148.82Zm41.56-63.36-1.88-1.66c-2.12,1.22-5.32,1.94-6.17,3.76-4,8.52-7.47,17.29-10.73,26.12-.61,1.64.23,4.19,1.22,5.84.43.73,3.65.91,4.26.19,1.19-1.41,1.66-3.57,2-5.5.5-2.58,0-5.51,1-7.82C329.24,99.29,332.89,92.42,336.34,85.46Zm-109.92,60-3-.75L212,157.93c0,3.68-2,10.3,8.57,11.49Zm74.86-18.08c2-4.87,3.85-9.18,5-11.78-2.13-5-3.72-8.7-5.27-12.34C292,110,291.86,122.27,301.28,127.34Zm-63.86-13.17c13.14-2.46,16.74-6.35,15.31-16.85-2.27,1.39-5.31,2.16-5.88,3.79-3,8.55-6.34,7.27-11.06-1.17C236.47,105.92,236.91,109.77,237.42,114.17Zm113,25.2,2.94-1c.73-3.35,2-6.71,2-10.05,0-1.76-2.05-4.23-3.79-5s-5.16-1-6.57.13c-1.18.94-1.34,4.49-.57,6.28C345.85,133.15,348.32,136.17,350.38,139.37Zm-49.75,27.49c-14.19-1.49-14.42-11.56-17.45-19.86a59.83,59.83,0,0,0,2.22,17c1,3.37,3.19,6.39,4.85,9.56ZM384.86,43.38c1.57-8,12.35-12.71,4.81-21.64C380.65,26.73,379.6,30.85,384.86,43.38ZM340,100.15c4.53-6.74,10.85-10.79,7.68-19C346.49,87.58,335.3,89.15,340,100.15Zm31.44-47.52.12-2.3a86,86,0,0,0-11.17-1.88c-.35,0-1,4.39-1.72,8Zm33.21,65.1c-10.43,1.64-10.72,2-7.2,8.21Zm-18,12.62-2.33-.58-3.95,12.32,3.39.87Q385.24,136.66,386.69,130.35Zm-164.94-2.23,3.29.81,2.67-11.31-3.58-.8Q222.95,122.48,221.75,128.12Z"/>
    <path class="cls-1" d="M221.05,372.22c0-19.34.11-38.68,0-58-.11-14.7-.67-29.4-.79-44.09-.05-7.08.18-14.19.77-21.24,1.59-18.95,11.12-29.13,30.27-29.72,22.85-.7,45.75,0,68.61.56,27.79.72,55.55,2,83.33,3.06,2.44.09,5.14-.31,7.24.61a6.68,6.68,0,0,1,3.2,4.81c.12,1.24-1.77,3.23-3.22,3.9-1.61.74-3.74.51-5.64.45-16.84-.55-33.68-1.34-50.53-1.67-11.62-.23-23.27,0-34.88.49-1.55.06-4.13,3-4.25,4.76a129.89,129.89,0,0,0,.12,21.06c.19,2,3.26,5,5.29,5.26,8.83,1.08,17.76,1.4,26.67,1.83,13.82.67,27.66,1.11,41.47,1.92,1.44.09,2.77,2.06,4.15,3.16-1.52,1.28-2.9,3.42-4.56,3.66a81.59,81.59,0,0,1-14.65.83c-10.43-.36-20.87-1.75-31.28-1.5a96.62,96.62,0,0,0-24.05,3.8c-2.29.64-4.46,5.78-4.65,9-.66,10.86,1.79,22.37-.95,32.56-5.86,21.78-2.67,43.07-.95,64.68.65,8.12,3.32,12.29,11.64,11.93,5.42-.23,10.85-.45,16.26-.8,5.15-.32,10.31-1.24,15.45-1.12,16.24.38,32.47,1.16,48.7,1.69,4.33.14,8.49,0,7.85,6.34s-4.54,4.86-8.9,4.74c-17-.49-34-.38-51-.52-2.14,0-4.3,0-6.42-.24-6.73-.68-13.45-2-20.17-2-10.64,0-13.62,4.07-12.87,14.75.36,5.13-.29,10.33-.49,15.5-.33,8.95,2.2,12.27,11.2,12.23,16.58-.08,33.16-1,49.74-1.28,10.87-.19,21.76,0,32.63.28,1.85.05,5,1.25,5.24,2.39a18,18,0,0,1-.43,9.46c-.43,1.2-4.15,1.77-6.34,1.68-10.89-.46-21.77-1.19-32.65-1.92-4.34-.29-8.66-.85-13-1.22-4.59-.39-9.41-1.75-13.76-.86-22.88,4.68-45.69.77-68.52.27a9.5,9.5,0,0,0-4,.43c-13.86,6.46-26.42-.09-38.48-5-11.75-4.75-13-16.85-13.44-27.81-.61-16.33-.16-32.7-.16-49.06Zm8.53,2.84c-2.16,16,1,18.56,16.32,14.76A76,76,0,0,0,286.22,365c11.16-13,9.76-27-3.75-37.57-11.56-9-24.9-13.1-39.52-13.3-10.28-.14-13.19,2.35-13.32,12.85C229.43,343,229.58,359,229.58,375.06Zm72.7-12.1-2.75-1.18c-2.53,2.91-5.42,5.58-7.52,8.77-12.66,19.26-29.91,30.24-53.37,31.17-3.1.13-7.95,2.94-8.77,5.52-4.16,13.23-.69,32.34,19.29,34.32,14.57,1.44,29.33.86,44,1.79,7.73.5,10-2.73,10-9.85,0-20.67.35-41.35.43-62C303.54,368.64,302.72,365.8,302.28,363Zm1.57-59.28-.58,0c.43-7.85,1.24-15.71,1.09-23.54-.05-2.42-2.3-6.33-4.28-6.89a71.38,71.38,0,0,0-16.67-2.06c-7.17-.24-14.36.14-21.55.3-8.6.18-17.29-.23-25.74,1-2.7.4-5.61,4.91-6.87,8.15-1.53,3.94-1.73,8.51-2,12.84-.37,7.17,3.52,11.82,10.63,11.55,22-.81,40.43,6.51,55.91,22,4.59,4.6,7.53,3.52,8.44-3C303.2,317.29,303.36,310.46,303.85,303.68Zm.54-57.43c-.3-16.32-3.6-19.13-21.49-18.32-6.85.3-10.28,6-10.11,16.67.22,13.92,4.35,19.06,15.28,19C300.94,263.63,304.64,259.68,304.39,246.25Zm-38.84-4.1c.64-7.62-2-10.88-10.37-12-7.41-1-14.5,1-17.62,5.29-4.21,5.8-6.45,14.37-6.21,21.65.21,6.76,8,4.38,12.81,4.62s9.68.72,14.37,0c1.93-.28,4.4-3.09,5-5.19C264.73,251.93,264.93,247,265.55,242.15Z"/>
    <path class="cls-1" d="M291.46,584.9c0-21.52-.08-43,0-64.55,0-7.39-2.27-9.18-10.45-11.2-12.63-3.12-23.57,2.54-35.36,1.69-7.45-.55-10.81,4.85-11.34,11.4-1.38,16.82-2.51,33.67-3.27,50.53-.74,16.31-.77,32.66-1.43,49-.09,2.23-2,4.38-3.09,6.57-1.45-2-3.9-4-4.15-6.14a141,141,0,0,1-.56-17.93c.27-24.52.73-49,1-73.55.19-20.72,12.24-31.93,33-31.54,21.25.4,42.51-.1,63.76,0,5.41,0,8.23-1.95,8.05-7.61-.09-3-.42-6.13.32-8.95.86-3.27,2.78-6.26,4.24-9.37,1.41,3.17,3.3,6.23,4.1,9.54.69,2.83.32,6,.08,9-.48,5.92,2.44,7.37,7.89,7.34,18.79-.12,37.59.09,56.38.3,4.25,0,9.49-.67,9.33,6-.16,6.94-5.55,6.29-10.13,6.24-4.06-.05-8.13-.78-12.19-.8-10.19-.08-11.48,1.07-11.78,11.71-.73,25.88-1.21,51.76-1.85,77.64-.4,16.07-1.06,32.13-1.31,48.19-.17,10.77,1.37,12.09,12.33,12.29,5.72.1,11.47-.16,17.15.37,1.92.17,4.86,2,5.16,3.57.36,1.77-1.2,5.18-2.77,5.82-3.8,1.54-8,2.12-12.18,2.65-3.7.46-7.48.26-11.21.49-1.61.1-3.21.82-4.8.78-23.26-.59-46.53-2-69.77-1.57-9.75.17-19.18,2.15-28.81-1.6-2.68-1-6.73,2.18-10.11,2.06-13.52-.48-27-1.39-40.52-2.52-1.32-.11-2.42-2.86-3.63-4.38,1.64-1.14,3.24-3.18,4.92-3.27,8.16-.39,16.34-.27,24.51-.3,9,0,18-.16,27,0,6.39.1,9.84-2.76,9.86-9.17.06-22.88,0-45.76,0-68.64ZM364,587.28h1.75V557.87c0-13.33.3-26.67-.18-40-.29-8.14-4.07-9.95-11.82-8.23-4.37,1-9.1.39-13.67.31-5.14-.1-10.28-.49-15.42-.61-4.69-.12-9.45.46-14-.2-7.81-1.11-10.13.28-10.21,8-.15,13.34.06,26.69-.12,40-.45,31.27-1.09,62.54-1.54,93.81-.13,9.24,1.85,11.31,10.84,11.25,15-.11,29.95-.74,44.92-.68,7.07,0,9.65-2.8,9.57-9.73C363.88,630.32,364,608.8,364,587.28Z"/>
    <path class="cls-1" d="M321.18,909.32c-1.09-7,3.46-16.55-9.22-18.66-1-.17-1.75-2.4-2.62-3.67,1.66-1,3.27-2.9,5-3,9.52-.46,19.07-.33,28.59-.78,2.44-.11,4.81-1.59,7.21-2.44-1.19-2.31-1.81-5.38-3.68-6.8a182.35,182.35,0,0,0-20.86-13.92c-1.63-.91-6.2.81-7.65,2.68-5.67,7.38-10.64,15.3-15.87,23l-4.69-3.83,5.86,6.75c-3.05,4.25-7.81,7.5-11.35,4-2.83-2.75-4.51-10.25-2.74-13.44,4.26-7.63,10.85-14,17.93-22.56-8.26,0-15.63,0-23,0-4.35,0-8.79.74-13,.08-3.2-.49-6.13-2.68-9.18-4.11,3.13-1.49,6.27-4.27,9.4-4.25,17.67.07,35.34,1,53,1.19,5.52.06,11.07-1.26,16.56-2.21,2.93-.5,5.73-2.14,8.62-2.25,12-.48,24-.88,35.93-.58,2.67.07,5.26,3.08,7.89,4.74-2.72,1.59-5.35,4.38-8.17,4.58-12.22.89-24.49,1-36.74,1.46-2,.08-4.05.64-8.66,1.42,5.42,4.89,9.57,8.2,13.19,12a44.79,44.79,0,0,1,7.83,10.36c3.19,6.32-.58,12.09-7.67,12.64-5.15.4-10.29,1-15.44,1-7.45.12-8.1,5.12-8,10.64.16,6.21,4.35,7.44,9.56,7.36,5.67-.09,11.35,0,17,0l.42,3.3a70,70,0,0,1-7.28,2c-5.05.81-10.2,1.06-15.2,2.09-5.62,1.16-6.88,5.15-6.28,10.53.65,5.84,4.25,7,9.09,6.94q14.29-.3,28.58-.67c5.17-.13,10.37-.75,15.48-.27,2.39.22,4.59,2.52,6.87,3.88-2.33,1.38-4.64,3.89-7,4-26,.69-52,1-78.07,1.44-9.8.18-19.59.61-29.39.81a29.8,29.8,0,0,1-8.08-.61c-1.49-.4-2.61-2.22-3.89-3.4,1.25-1.25,2.41-3.47,3.76-3.59,5.94-.56,11.93-.56,17.91-.67,10-.18,20.07,0,30.09-.51,7.89-.37,7.34-6.92,7.56-12.19.24-6-4.3-5.72-8.61-5.68-10.89.11-21.79.17-32.68,0s-17.09-5.44-19.44-16.12c-2.67-12.16-1.61-23,3.8-30,1,3.83,2.14,6.66,2.43,9.58.5,5.14.29,10.34.72,15.49.7,8.45,4.58,12.11,13,12.18C293.27,909.4,306.56,909.32,321.18,909.32Z"/>
    <path class="cls-1" d="M369.91,741.77c9.53,0,19.06.09,28.59,0,4.5-.07,8.37.11,8,6.22-.33,5.89-3.77,5.6-8.47,5.55-13.94-.14-27.88.74-41.82.79-6.76,0-13.52-1.31-20.29-1.39-19.1-.21-38.2,0-57.29-.32-2.18,0-4.3-2.8-6.45-4.29,2.26-1.38,4.5-3.9,6.8-3.95,10.61-.24,21.25,0,31.86.47,5.11.21,9.28-.69,11.31-5.89,2.23-5.72-.9-10.65-7.05-10.68-27.33-.13-54.66-.09-82-.25-2,0-5.32-.79-5.61-1.86-2.24-8.25-4-16.63-5.53-25-.18-1,2.23-2.5,3.43-3.76,1,1.39,2.65,2.65,3,4.2,3.71,16.61,4.67,17.38,21.48,17.26q31.48-.24,63-.28c10.32,0,10.91-.85,11.67-11,.32-4.29,2.53-8.44,3.89-12.65,1,4.17,2.55,8.3,2.77,12.51.5,9.71,1.09,10.75,11,10.74,18.76,0,37.53-.4,56.29-.21,2.64,0,5.26,2.47,7.89,3.79-2.06,2.1-3.94,5.79-6.19,6-11.47,1.21-23,1.83-34.57,2.06-8.38.16-16.79-1-25.16-.79-4.68.13-9.54,1.88-9.09,8.2.46,6.49,5.69,5.56,9.89,5.62,9.54.15,19.08,0,28.62,0Z"/>
    <path class="cls-1" d="M321.32,793.35h69.46c2.73,0,5.61-.54,8.14.18s4.47,2.69,6.69,4.12c-2,2-3.86,5.47-6.1,5.75a218.71,218.71,0,0,1-24.44,1.22q-20.81.21-41.63,0c-9-.11-17.94-.75-26.91-.93-5.95-.12-11.92.11-17.88.28-2.71.07-5.41.51-8.12.52-13,0-26-.33-38.92.1-9.83.33-15.05-3-16.64-12.68a55,55,0,0,1-.32-11.41c.38-8.47,4.18-12.44,12.64-12.89,12.23-.65,24.47-1.15,36.72-1.4q61.29-1.26,122.6-2.2c2.84-.05,6.17.21,8.34,1.7,1.24.85,1.43,4.87.54,6.71a7.68,7.68,0,0,1-5.7,3.54c-16.21.29-32.43.25-48.64.18-13.78-.05-27.57-.17-41.34-.45-18.21-.36-36.41-.91-54.62-1.37-3.81-.1-7.64-.38-11.43-.12-8.72.59-12.31,4.34-12,12.12.24,7,4.39,10.41,12.77,10.42q38.42,0,76.83,0Z"/>
    <path class="cls-1" d="M66.84,60.14l13-9.92,2.14,2C79.23,58,74.07,63.78,81.7,69c-3.44,7.71-6.12,16-16.14,15.1-3.05-.26-5.82-3.75-9.25-6.13-.23,1.24-.51,3.22-1,5.16C54,88.73,53.1,94.56,51,99.94c-1.56,4.07-4.61,3.13-6.71-.13-3.64-5.67-4.86-13.32-13.64-14.69-1.2-.18-2.23-5.83-2.17-8.93.25-12.69.61-25.41,1.7-38,.32-3.73,3.18-7.23,4.87-10.84,3.82,2.22,7.84,4.18,11.41,6.74,3.09,2.23,5.69,5.14,8.5,7.75l3-.32L52.14,56.14l1.09.67c1.84-3.44,4-6.73,5.41-10.35s2.76-8.3,7.43-6.15c2,.93,2.64,6.1,2.81,9.39C69,52.75,67.74,55.88,66.84,60.14Z"/>
    <path class="cls-1" d="M297.45,822.57q47.6-2,95.2-4c2.17-.09,4.35,0,6.53.09,4.52.11,7.06,2.9,5.62,6.82-.91,2.5-4.56,5.7-7,5.68-15.65-.13-31.3-1.52-47-1.64-33.27-.26-66.56-.06-99.84.08-11,0-22.75,12.1-23,23.58-.55,28-.86,56-1.48,84,0,2.22-1.75,4.41-2.69,6.62-1-2.11-3-4.21-3-6.32-.11-28.23-.24-56.47.24-84.7.29-16.77,9.68-26.47,26.63-28.16,16.5-1.65,33.06-2.68,49.59-4Z"/>
    <path class="cls-1" d="M339.6,338.28c1.33-7.74,2.2-15.6,4.12-23.19,1.76-6.92,6.76-11.32,14.11-11.64,8.81-.39,18.06-1.78,26.39.26,12.64,3.08,17.33,11.37,16.92,24.44q-.36,11-1.27,22c-1.13,13.67-10.05,20.56-23.76,18.88-5.12-.63-10.32-.56-15.49-.86-13.26-.77-18.5-5.86-19.63-19.13-.3-3.53-.41-7.07-.61-10.6Zm10.13-3.88h.55c-.18,3.26-.43,6.52-.51,9.79-.23,8.81,5.63,13.6,18.53,15.23s22.35-1.91,23.08-9.85a173,173,0,0,0-.38-30.87c-.18-2-5-4.54-8.09-5.28-4.79-1.17-10.12-.26-14.84-1.6-10.3-2.91-18.1,2.17-18.32,12.77C349.68,327.87,349.73,331.14,349.73,334.4Z"/>
    <path class="cls-1" d="M321.55,1083.53c-.63,8.59-.81,17.25-2.19,25.72-.37,2.32-4.34,4.06-7.33,5.33-2.28,5.4-2.1,13.24-12.33,10.08-5.7-1.76-11.71-2.51-18.29-3.86-1.65,3.5-4.09,8.38-10.4,2.39-.56-.54-3.2,1-4.81,1.69-5.41,2.34-8.57.47-9.5-2.54,3.31-4.59,5.06-8,7.73-10.38a14.2,14.2,0,0,1,8-3.21c2.08-.15,4.29,1.72,6.45,2.69l1.33-1.9c-2-1.16-4-2.24-6-3.49-2.64-1.72-6-3.08-7.58-5.52-1.45-2.18-1.22-5.61-1.33-8.51s.27-5.85.48-9.7l10,8.3c.66-2.67,1-3.24.87-3.67-.68-2.4-1.48-4.77-2.23-7.15,2-.51,5.12-2,5.77-1.32a14.59,14.59,0,0,1,3.15,7.14,18.2,18.2,0,0,1-.66,7.07,69.9,69.9,0,0,1-2.59,7.45c4-1,6.2,7.06,11.25,2.27.21-.2,4.81,3.14,6.17,5.51,1.89,3.29,2.65,7.24,3.9,10.9l2.42,0c.85-2,2.79-4.26,2.37-5.94-2-7.83,2-9.09,10.78-6.87l-5.81-8L301,1103.2c-.92-2-3.15-4.8-2.51-5.86,1.82-3,4.81-5.29,7.34-7.87L308,1091c.42-2.81.84-5.62,1.51-10.14l12.22,2.94Z"/>
    <path class="cls-1" d="M201.29,60.8c7.13.48,9.42,3.05,6.51,10.49-2.11,5.38-2.18,13.82-11.93,12.55-.84-.1-2.11,1.6-2.86,2.69-4.11,5.93-8.33,3.88-13,.65s-5.39-7.75-2.88-12.06c3-5.17,7.16-9.67,9.42-12.63,3.3-6.52,5.5-11.36,8.26-15.84.44-.72,4.9-.14,5,.3C200.56,51.22,200.81,55.58,201.29,60.8Z"/>
    <path class="cls-1" d="M242.63,24.9l5.6-3.59c-1.25-2.45-3.58-4.9-3.12-6.58.63-2.29,3.66-5.84,5.2-5.62,8.25,1.18,16.34,3.07,24.79,1.4,1-.19,3.37,1.74,3.36,2.66,0,2.53-.25,6.52-1.77,7.32-5.76,3.06-10,8.68-17.84,8.64-4.16,0-8.34,4.05-12.53,6.23-2.59,1.35-5.23,2.64-7.84,4l-1.64-1.93,6-12.72Z"/>
    <path class="cls-1" d="M391.71,872c.34,12.17,2.68,24.53-3.21,36.26a18.27,18.27,0,0,1-22.91,9c-1.74-.65-3.88-2.7-4-4.29-.12-1.3,2.19-3.24,3.83-4.21s3.66-.86,5.49-1.38c9.13-2.62,13-7.29,13.91-16.75.37-4,.22-8.18.87-12.17.42-2.54,1.88-4.9,2.87-7.33Z"/>
    <path class="cls-1" d="M92.51,87.3c-5.22-4.2-11.86-7.33-5.1-14.88a11.53,11.53,0,0,1,1.07-1.22c4.21-3.37,23.23.14,25.64,5.07,1.07,2.17,1.8,6.64.85,7.25-2.39,1.55-7.11,3.08-8.6,1.84C100.66,80.61,96.54,83.07,92.51,87.3Z"/>
    <path class="cls-1" d="M123.1,77.41c-.74-.44-3.86-1.25-4.76-3.12s.26-4.84.9-7.23,1.87-4.36,2.52-6.62c2.31-8,8-10.18,14.86-5.57a6.36,6.36,0,0,1,2.26,2.2C140.77,61.07,129.59,77.35,123.1,77.41Z"/>
    <path class="cls-1" d="M268.51,747.56c-3.5,1.74-6.87,4.61-10.5,5a211.5,211.5,0,0,1-27.58.87c-2.24-.06-4.41-2.87-6.61-4.41,1.46-1.64,2.87-4.66,4.37-4.7,13.11-.38,26.23-.22,39.35-.22C267.86,745.25,268.18,746.41,268.51,747.56Z"/>
    <path class="cls-1" d="M151.24,77.45c-.06,2.17.63,4.79-.34,6.42-1.7,2.83-4.34,7-6.73,7.09-3.9.15-8.32-2-11.62-4.35-.94-.68.44-6.24,2.16-8.51,2.46-3.27,5.88-6.54,9.57-7.8,1.37-.47,4.68,4.76,7.1,7.4Z"/>
    <path class="cls-1" d="M242.87,24.67a61.35,61.35,0,0,1-6.57-5.15c-1.55-1.56-3.07-5.48-3.63-5.3a18.19,18.19,0,0,0-7.17,4.34c-1.93,2-3.06,4.69-4.72,7.38-6.52-4.05-4.72-9.44-3.39-13.65.6-1.9,5-2.72,7.85-3.74,1.22-.44,2.7-.17,4.06-.18,12.93-.16,15.88,3.5,13.33,16.53Z"/>
    <path class="cls-1" d="M101.18,12l-3.66,6a98.77,98.77,0,0,1,6.55,9.23c.16.27-3.13,3.69-4.41,3.45a44.6,44.6,0,0,1-15.28-5.91C91,20.51,91.08,10.29,99.54,9.83Z"/>
    <path class="cls-1" d="M130.33,16.14c-2.35,7.26-4.18,13.74-6.67,20-.57,1.42-3.63,3-5.13,2.6s-3.11-2.84-3.49-4.64C114.23,30.16,124,18,130.33,16.14Z"/>
    <path class="cls-1" d="M61.75,9.78c.8.93,2.42,2.85,4,4.76-2.19,1.63-4.17,4.09-6.61,4.7-3.35.84-7.07.51-10.58.19C47,19.28,45.55,17.94,44,17.15c1.2-1.82,2.06-4.71,3.69-5.24C51.52,10.69,55.68,10.6,61.75,9.78Z"/>
    <path class="cls-1" d="M213.77,47.32l6.06-6.7c2.8,3.23,5.89,6.27,8.09,9.87.35.57-3.32,3.6-5.14,5.5Z"/>
    <path class="cls-1" d="M147.52,1108.39c1.26,2.9,2.63,6.07,4.78,11l-7.94-2.13c-1,2.15-2.07,4.4-3.81,8.11-2.36-5-4.08-8.59-5.84-12.3Z"/>
    <path class="cls-1" d="M137,22.52c-1.58-2.74-4.65-5.68-4.32-8.16.3-2.21,4.36-3.92,6.75-5.85,1.63,2,4.64,4.09,4.55,6-.11,2.75-2.51,5.41-3.94,8.1Z"/>
    <path class="cls-1" d="M404,263.84l9,7.74c-2.21,1.32-4.77,4.08-6.56,3.65-3.06-.73-5.65-3.46-8.43-5.35Z"/>
    <path class="cls-1" d="M36.61,1087.05c8.87,4.06,9.57,7.65,2.42,15.46C38.29,1097.77,37.55,1093,36.61,1087.05Z"/>
    <path class="cls-1" d="M209,30.92c1.22,3.94,2.65,7.84,3.54,11.86.25,1.1-.86,2.85-1.86,3.71-.4.35-3-.7-3.18-1.42-1-4.53-1.53-9.14-2.22-13.72Z"/>
    <path class="cls-1" d="M159.67,7l4.19,6.3c-1.82,1.19-3.74,3.41-5.45,3.27s-3.12-2.71-4.67-4.21Z"/>
    <path class="cls-1" d="M91.79,96.23c-3.53,1.36-5.56,2.84-6.39,2.34-2.47-1.49-4.46-3.76-6.64-5.73,1.5-.69,3.31-2.27,4.44-1.88C85.67,91.81,87.79,93.67,91.79,96.23Z"/>
    <path class="cls-1" d="M284.94,1093l6.11-5.55,3.17,4.9-6.8,4Z"/>
    <path class="cls-1" d="M187.25,1073.65c-6.38,4.88-12,2.78-17.06-.24-1.58-1-1.53-4.6-2.34-7.42l13.64,1.28C182.51,1068.41,184.61,1070.74,187.25,1073.65Z"/>
    <path class="cls-1" d="M356.51,1074.91q1.88-9.32,3.74-18.62l-2.24-.79,9.51-5.8c1,3.72,2,7.12,3.1,11l-5.89,2c.54,13.52,0,14.26-8.19,11.93A.89.89,0,0,0,356.51,1074.91Z"/>
    <path class="cls-1" d="M377,86.5l-5.45,7.29c-1.16-2.08-3.57-4.41-3.2-6.17.6-2.9,3-5.43,4.63-8.12Z"/>
  </g>
</svg>
