<svg width="87" height="87" viewBox="0 0 87 87" fill="none" xmlns="http://www.w3.org/2000/svg">
<path d="M18.9588 38.57C19.2631 38.9371 19.6368 39.2405 20.0586 39.4629C20.4804 39.6853 20.9418 39.8223 21.4166 39.8661C21.8914 39.9099 22.3702 39.8596 22.8255 39.718C23.2808 39.5765 23.7037 39.3465 24.07 39.0413L39.875 25.8825V68.875C39.875 69.8365 40.257 70.7585 40.9368 71.4383C41.6166 72.1181 42.5386 72.5 43.5 72.5C44.4614 72.5 45.3835 72.1181 46.0633 71.4383C46.7431 70.7585 47.125 69.8365 47.125 68.875V25.8825L62.93 39.0413C63.2966 39.346 63.7196 39.5754 64.1748 39.7166C64.63 39.8578 65.1086 39.908 65.5833 39.8642C66.0579 39.8205 66.5192 39.6837 66.941 39.4616C67.3627 39.2395 67.7366 38.9366 68.0413 38.57C68.346 38.2035 68.5754 37.7805 68.7166 37.3253C68.8578 36.87 68.908 36.3914 68.8642 35.9168C68.8205 35.4422 68.6837 34.9808 68.4616 34.5591C68.2396 34.1373 67.9366 33.7635 67.57 33.4588L45.82 15.3338L45.2763 15.0075L44.805 14.7538C43.9652 14.4297 43.0349 14.4297 42.195 14.7538L41.7238 15.0075L41.18 15.3338L19.43 33.4588C19.063 33.7631 18.7596 34.1368 18.5371 34.5586C18.3147 34.9804 18.1777 35.4419 18.134 35.9166C18.0902 36.3914 18.1405 36.8702 18.282 37.3255C18.4236 37.7808 18.6536 38.2037 18.9588 38.57Z" fill="white"/>
</svg>
