<svg id="圖層_1" data-name="圖層 1" xmlns="http://www.w3.org/2000/svg" viewBox="0 0 291.78 78">
  <defs>
    <style>
      .cls-1 {
        fill: #54524c;
      }

      .cls-2 {
        fill: #5f5d56;
      }

      .cls-3 {
        fill: #ad9d72;
      }

      .cls-4 {
        fill: none;
        stroke: #ad9d72;
        stroke-miterlimit: 10;
      }
    </style>
  </defs>
  <g>
    <path class="cls-1" d="M38.66,22.51H67a2.35,2.35,0,0,0,0-4.69h-6.1V15.61h0s0,0,0,0a2.51,2.51,0,0,0-5,0v0h0v2.21H49.77V15.6a2.51,2.51,0,0,0-5,0h0v2.21H38.66a2.35,2.35,0,0,0,0,4.69Z"/>
    <path class="cls-1" d="M70.73,53.6H52.28V51.43c0-.71.18-.86.85-.86h3.54a1.63,1.63,0,0,0,1.86-1.72V47.41a1.55,1.55,0,0,0-1.74-1.49H49.47a1.9,1.9,0,0,0-2.16,2v5.67H35.1a2.46,2.46,0,1,0,0,4.92H70.73a2.46,2.46,0,0,0,0-4.92Z"/>
    <path class="cls-1" d="M62,60.75H43.43a2.51,2.51,0,0,0,0,5H62a2.51,2.51,0,0,0,0-5Z"/>
    <path class="cls-1" d="M77.31,39H75.6v-7.7c0-3.93-2.31-6.51-6.1-6.51H54.28v2.62c0,3-1.71,4.86-6.06,4.86-1.72,0-2.08.63-2.08,1.25l0,1.35c0,1.07.47,1.41,2.43,1.41h6.62c3,0,3.37-.47,3.37-3.26V29.49h4.2v3.9c0,4-1.18,6.4-5.21,6.4l-12-.05A3.19,3.19,0,0,1,42.1,36.4V32.67c0-2.89,1.46-3.9,3.84-3.9,2.61,0,3.94-.69,3.94-2.52V24.8H33a2.34,2.34,0,0,0,0,4.68h4.76v2.3H29.34a2.35,2.35,0,0,0,0,4.69h8.38V39h-9.3a2.35,2.35,0,0,0,0,4.69H61c4.9,0,6.65-4.33,6.65-8.86V29.48h3.1V41.66a2.06,2.06,0,0,0,1.82,2h4.81a2.34,2.34,0,0,0,0-4.68Z"/>
    <path class="cls-1" d="M42.61,48.29V48c0-.78.18-1.88.49-2H30.64a2.6,2.6,0,0,0,0,5.2H43.27C42.51,51.07,42.61,49.11,42.61,48.29Z"/>
    <path class="cls-1" d="M75,46H62.52c.41.16.47,1.17.47,2v.3c0,.82.09,2.78-.67,2.94H75A2.6,2.6,0,0,0,75,46Z"/>
  </g>
  <g>
    <path class="cls-2" d="M109.13,70.7h-1.67l-1.86-4.62h0V70.7H104V63.37h1.73l1.83,4.55h0V63.37h1.5Z"/>
    <path class="cls-2" d="M115.45,64.8H114v5.9h-1.58V64.81H111V63.38h4.46Z"/>
    <path class="cls-2" d="M121.92,68.64a2.1,2.1,0,0,1-.62,1.62,2.79,2.79,0,0,1-3.46,0,2.29,2.29,0,0,1-.61-1.72V63.38h1.59v4.88a1.31,1.31,0,0,0,.21.8.66.66,0,0,0,.56.28.63.63,0,0,0,.54-.27,1.24,1.24,0,0,0,.19-.73v-5h1.6Z"/>
    <path class="cls-2" d="M129.1,70.7h-1.55l-.24-1.14h-1.93l-.27,1.14h-1.54l2.09-7.32h1.6Zm-2-2.33-.64-3.2h0l-.74,3.2Z"/>
    <path class="cls-2" d="M134.39,63.38h1.76a3,3,0,0,1,2.32.94,3.83,3.83,0,0,1,.87,2.7,4,4,0,0,1-.84,2.73,3.08,3.08,0,0,1-2.41,1h-1.7ZM136,64.7v4.67h.19a1.64,1.64,0,0,0,1-.39c.34-.25.51-.87.51-1.84a4.35,4.35,0,0,0-.19-1.54,1.41,1.41,0,0,0-.56-.68,1.54,1.54,0,0,0-.76-.22Z"/>
    <path class="cls-2" d="M141.1,68.24a3.21,3.21,0,0,1,.54-2,1.81,1.81,0,0,1,1.53-.7,1.83,1.83,0,0,1,1.54.68,4,4,0,0,1,0,4,1.78,1.78,0,0,1-1.51.69,1.93,1.93,0,0,1-1.57-.67A3,3,0,0,1,141.1,68.24Zm2.68,0a4.46,4.46,0,0,0-.11-1.17.47.47,0,0,0-.48-.33.48.48,0,0,0-.48.31,2.59,2.59,0,0,0-.15,1,4.53,4.53,0,0,0,.12,1.25.47.47,0,0,0,.49.36.47.47,0,0,0,.48-.33A3.24,3.24,0,0,0,143.78,68.22Z"/>
    <path class="cls-2" d="M149.82,67a1.06,1.06,0,0,0-.62-.24c-.5,0-.74.48-.74,1.46s.24,1.49.73,1.49a1.14,1.14,0,0,0,.62-.22v1.2a2.84,2.84,0,0,1-1,.22,1.56,1.56,0,0,1-1.33-.67,3,3,0,0,1-.49-1.84,3.44,3.44,0,0,1,.52-2.2,1.68,1.68,0,0,1,1.34-.61,2,2,0,0,1,1,.23Z"/>
    <path class="cls-2" d="M155.69,68.88a1.92,1.92,0,0,1-.55,1.43,2,2,0,0,1-1.44.54,2.06,2.06,0,0,1-1.52-.54,2.08,2.08,0,0,1-.55-1.52V65.67h1.45v3.2c0,.53.2.8.62.8s.56-.25.56-.76V65.67h1.43Z"/>
    <path class="cls-2" d="M164.45,70.7H163V68c0-.65-.2-1-.6-1a.49.49,0,0,0-.44.25,1.26,1.26,0,0,0-.16.69V70.7h-1.43V67.87a1.15,1.15,0,0,0-.16-.66.53.53,0,0,0-.45-.23.48.48,0,0,0-.41.26,1.18,1.18,0,0,0-.17.65V70.7h-1.43v-5h1.43v1h0c.38-.73.84-1.09,1.39-1.09a1,1,0,0,1,.78.34,1.4,1.4,0,0,1,.36.93h0a2.2,2.2,0,0,1,.65-.93,1.43,1.43,0,0,1,.9-.34.94.94,0,0,1,.81.46,2,2,0,0,1,.32,1.18Z"/>
    <path class="cls-2" d="M170.35,68.49h-2.53a2.66,2.66,0,0,0,.18,1.07.51.51,0,0,0,.5.25q.47,0,.51-.6h1.26a1.8,1.8,0,0,1-.56,1.22,1.91,1.91,0,0,1-1.29.42,1.86,1.86,0,0,1-1.56-.69,3.28,3.28,0,0,1-.53-2,2.92,2.92,0,0,1,.59-1.9,1.92,1.92,0,0,1,1.55-.72,1.67,1.67,0,0,1,1.13.39,2,2,0,0,1,.6,1A6.64,6.64,0,0,1,170.35,68.49ZM169,67.67a3,3,0,0,0-.13-1,.43.43,0,0,0-.42-.3.5.5,0,0,0-.49.3,2.25,2.25,0,0,0-.15,1Z"/>
    <path class="cls-2" d="M173.69,65.67v.93h0a3.29,3.29,0,0,1,.65-.82,1.2,1.2,0,0,1,.76-.25A1,1,0,0,1,176,66a2.1,2.1,0,0,1,.32,1.22V70.7h-1.42V67.79a.91.91,0,0,0-.16-.58.5.5,0,0,0-.44-.22c-.4,0-.59.31-.59.93V70.7h-1.43v-5Z"/>
    <path class="cls-2" d="M181.22,66.81h-.89V70.7h-1.44V66.82H178V65.67h.9V64.24h1.44v1.43h.89Z"/>
    <path class="cls-2" d="M190.35,70.7h-1.43v-.85h0c-.24.67-.63,1-1.18,1a1.26,1.26,0,0,1-1-.57,3.5,3.5,0,0,1-.44-2c0-1.81.5-2.71,1.5-2.71.54,0,.92.34,1.13,1h0v-.9h1.44Zm-2.1-3.91c-.34,0-.51.42-.51,1.28a3.13,3.13,0,0,0,.14,1.12.47.47,0,0,0,.46.34.46.46,0,0,0,.45-.31,4,4,0,0,0,0-2.09.51.51,0,0,0-.5-.34Z"/>
    <path class="cls-2" d="M193.9,65.67v.93h0a3.08,3.08,0,0,1,.65-.82,1.2,1.2,0,0,1,.76-.25,1,1,0,0,1,.86.46,2.1,2.1,0,0,1,.32,1.22V70.7H195.1V67.79a.91.91,0,0,0-.16-.58.5.5,0,0,0-.44-.22q-.6,0-.6.93V70.7h-1.42v-5Z"/>
    <path class="cls-2" d="M202.44,70.7H201v-.83h0a1.29,1.29,0,0,1-1.2,1,1.27,1.27,0,0,1-1-.57,3.65,3.65,0,0,1-.43-2.1,4,4,0,0,1,.39-2,1.24,1.24,0,0,1,1.13-.68q.78,0,1.11,1h0V62.88h1.42Zm-2.05-3.9c-.37,0-.56.47-.56,1.4s.2,1.36.6,1.36a.47.47,0,0,0,.45-.32,2.77,2.77,0,0,0,.14-1c0-1-.21-1.42-.62-1.42Z"/>
    <path class="cls-2" d="M211.54,64.81h-1.85v1.5h1.59v1.36h-1.59v3h-1.57V63.38h3.42Z"/>
    <path class="cls-2" d="M213.3,64a.79.79,0,0,1,.26-.59.81.81,0,0,1,.6-.26.86.86,0,0,1,.6.25.86.86,0,0,1-.6,1.46.8.8,0,0,1-.6-.25A.83.83,0,0,1,213.3,64Zm.16,1.67h1.43v5h-1.43Z"/>
    <path class="cls-2" d="M218.5,70.7h-1.44V62.88h1.44Z"/>
    <path class="cls-2" d="M224.49,68.49H222a2.66,2.66,0,0,0,.18,1.07.51.51,0,0,0,.5.25q.47,0,.51-.6h1.26a1.8,1.8,0,0,1-.56,1.22,1.89,1.89,0,0,1-1.29.42,1.86,1.86,0,0,1-1.56-.69,3.28,3.28,0,0,1-.53-2,2.92,2.92,0,0,1,.59-1.9,1.92,1.92,0,0,1,1.55-.72,1.67,1.67,0,0,1,1.13.39,1.83,1.83,0,0,1,.6,1A6.64,6.64,0,0,1,224.49,68.49Zm-1.34-.82a3,3,0,0,0-.13-1,.43.43,0,0,0-.42-.3.5.5,0,0,0-.49.3,2.25,2.25,0,0,0-.15,1Z"/>
    <path class="cls-2" d="M230,63.38h1.75a3,3,0,0,1,2.33.94,3.83,3.83,0,0,1,.87,2.7,4,4,0,0,1-.85,2.73,3.05,3.05,0,0,1-2.41,1H230Zm1.6,1.32v4.67h.19a1.64,1.64,0,0,0,1-.39c.35-.25.52-.87.52-1.84a4.6,4.6,0,0,0-.19-1.54,1.47,1.47,0,0,0-.56-.68,1.54,1.54,0,0,0-.76-.22Z"/>
    <path class="cls-2" d="M236.74,64a.78.78,0,0,1,.25-.59.83.83,0,0,1,1.2,0,.86.86,0,0,1,0,1.21.79.79,0,0,1-.6.25.85.85,0,0,1-.85-.86Zm.16,1.67h1.43v5H236.9Z"/>
    <path class="cls-2" d="M240.1,65.67h1.39l.7,3.31.73-3.31h1.4l-1.52,5h-1.34Z"/>
    <path class="cls-2" d="M246,64a.78.78,0,0,1,.25-.59.83.83,0,0,1,1.2,0,.86.86,0,0,1,0,1.21.79.79,0,0,1-.6.25A.85.85,0,0,1,246,64Zm.15,1.67h1.43v5h-1.43Z"/>
    <path class="cls-2" d="M252.21,67.06a1.72,1.72,0,0,0-1-.46c-.27,0-.41.11-.41.32s.22.33.67.57a2.72,2.72,0,0,1,1,.78,1.74,1.74,0,0,1,.31,1,1.49,1.49,0,0,1-.47,1.12,1.69,1.69,0,0,1-1.2.44,2.64,2.64,0,0,1-.89-.14,3.49,3.49,0,0,1-.82-.44l.61-1,.13.1a1.59,1.59,0,0,0,.85.42.45.45,0,0,0,.31-.11.34.34,0,0,0,.12-.27.44.44,0,0,0-.18-.31,5.63,5.63,0,0,0-.74-.51,3,3,0,0,1-.8-.65,1.3,1.3,0,0,1-.24-.79A1.48,1.48,0,0,1,250,66a1.66,1.66,0,0,1,1.21-.44,2.71,2.71,0,0,1,1.59.55Z"/>
    <path class="cls-2" d="M254.57,64a.82.82,0,0,1,.25-.59.83.83,0,0,1,.61-.26.86.86,0,0,1,.6,1.46.86.86,0,0,1-1.21,0A.86.86,0,0,1,254.57,64Zm.16,1.67h1.43v5h-1.43Z"/>
    <path class="cls-2" d="M258.1,68.24a3.21,3.21,0,0,1,.54-2,2.05,2.05,0,0,1,3.07,0,3.91,3.91,0,0,1,0,4,1.77,1.77,0,0,1-1.5.69,2,2,0,0,1-1.58-.67A3,3,0,0,1,258.1,68.24Zm2.68,0a4.46,4.46,0,0,0-.11-1.17.47.47,0,0,0-.48-.33.48.48,0,0,0-.48.31,2.63,2.63,0,0,0-.14,1,5.09,5.09,0,0,0,.11,1.25.49.49,0,0,0,.5.36.47.47,0,0,0,.48-.33A3.59,3.59,0,0,0,260.78,68.22Z"/>
    <path class="cls-2" d="M265.62,65.67v.93h0a3.29,3.29,0,0,1,.65-.82,1.2,1.2,0,0,1,.76-.25,1,1,0,0,1,.86.46,2.1,2.1,0,0,1,.32,1.22V70.7h-1.42V67.79a.91.91,0,0,0-.16-.58.5.5,0,0,0-.44-.22c-.39,0-.59.31-.59.93V70.7h-1.43v-5Z"/>
  </g>
  <g>
    <path class="cls-3" d="M133.89,22.71c-1.44,7.92-4.46,14.78-9.79,20.3a63.16,63.16,0,0,0,17.76,6l-.14.58a8.81,8.81,0,0,0-7.2,6.24,44.14,44.14,0,0,1-15.41-8.59c-5.62,4-13.06,6.86-22.71,8.49l-.19-.48c8.55-2.88,14.93-6.77,19.54-11.47-4.23-5.14-7.3-11.9-8.93-21.07H97.07l-.38-1.35h33.75l3.89-5.28s4.36,3.51,6.86,5.86c-.14.53-.67.77-1.39.77Zm-26.25,0A31.48,31.48,0,0,0,119.11,39.8a35.9,35.9,0,0,0,6.38-17.09Zm5.66-12.39c16.8.77,11.09,13.92,4.32,9.31A19.1,19.1,0,0,0,113,10.56Z"/>
    <path class="cls-3" d="M201.51,32.07s3.55,2.54,5.71,4.37c-.14.52-.67.76-1.34.76H162.1l-.38-1.34h19V32H165.89l-.38-1.34h15.17v-3.8H167.57l-.43-1.34h13.54V21.46H162.2l-.39-1.35h18.87v-4H167.86l-.43-1.34h13.25V10.13l8.59.72c-.1.72-.43,1.15-1.78,1.39v2.55h5.28l2.88-3.08,5.91,4.42a3,3,0,0,1-1.73.91v3.07h.24l2.64-3.6s3,2.5,4.7,4.18c-.09.53-.57.77-1.24.77h-6.34V27c0,.14-.34.33-.82.57,1.11.82,3.32,2.4,4.8,3.65-.14.53-.62.77-1.34.77h-15v3.84h10.9Zm-5.9,5.28,6.28,4.7A2.89,2.89,0,0,1,200,43.11V54c-.05.33-3.55,1.44-5.76,1.44h-1.2V52.71H175.88v.86c0,.63-3.08,2.07-5.86,2.07h-1V37.92l7.25,2.74h16.27ZM175.88,42v3.84h17.18V42Zm17.18,9.36V47.19H175.88v4.17Zm-5.57-31.25h5.76v-4h-5.76Zm0,5.43h5.76V21.46h-5.76Zm0,5.14h7.78l2.06-2.45a11.06,11.06,0,0,1-2.92.53h-1.16V26.88h-5.76Z"/>
    <path class="cls-3" d="M232.12,41.62c2.2,5.14,2.16,9,.62,11a3.2,3.2,0,0,1-5.09-.77c-.81-1.77,0-3.45,1.59-4.51,1-1.06,2.59-3.65,2.25-5.76Zm-4.61-6.43a7.75,7.75,0,0,0,1.92-.67c2-1.35,4.37-4.37,6.43-7.64-1.15.58-2.45,1.2-3.84,1.78a3.32,3.32,0,0,1-1.54,1.68l-2.88-6.82a7,7,0,0,0,1.64-.62c2-2,4.8-8.88,5.42-12.58l7.92,3.79a1.49,1.49,0,0,1-1.58.72,47.67,47.67,0,0,1-9.36,9c1.77,0,3.88,0,6,0a30.8,30.8,0,0,0,2.12-4.61l7.15,4.9a1.7,1.7,0,0,1-1.83.48A58.21,58.21,0,0,1,232.5,35.28c2.21-.09,4.94-.28,7.82-.48A24.41,24.41,0,0,0,238.84,31l.48-.24c11.23,3.84,6,12.15,1.72,8.26a16.17,16.17,0,0,0-.28-2.54c-2.36,1.15-5.52,2.64-9,4.12a3.78,3.78,0,0,1-2,1.78Zm8.11,6c9.46,6,3.17,13.68-.43,9.07a26.31,26.31,0,0,0-.15-8.93Zm4.51-.67c11,3.65,6,12.05,1.83,8.21a16.65,16.65,0,0,0-2.31-8ZM269.8,48.1a56.44,56.44,0,0,1,3.69,4.56c-.09.53-.57.77-1.19.77H243l-.38-1.34H247V11.71l7,2.6h6.53l2.78-3.65,6.67,4.65c-.33.53-.91.82-2.16,1V51.8ZM253.53,15.65V26.4h7.39V15.65Zm7.39,12.1h-7.39v11h7.39Zm-7.39,24.34h7.39v-12h-7.39Z"/>
  </g>
  <line class="cls-4" x1="89.99" y1="13.13" x2="89.99" y2="55.87"/>
  <line class="cls-4" x1="150.73" y1="13.13" x2="150.73" y2="55.87"/>
  <line class="cls-4" x1="216.11" y1="13.13" x2="216.11" y2="55.87"/>
  <line class="cls-4" x1="282.28" y1="12.2" x2="282.28" y2="66.2"/>
  <line class="cls-4" x1="17.69" y1="12.14" x2="17.69" y2="66.14"/>
</svg>
