<svg width="41" height="40" viewBox="0 0 41 40" fill="none" xmlns="http://www.w3.org/2000/svg">
<path d="M36.5 14.5917V28.6973C36.5 30.0095 35.9732 31.2681 35.0355 32.196C34.0979 33.1239 32.8261 33.6452 31.5 33.6452H9.5C8.17392 33.6452 6.90215 33.1239 5.96447 32.196C5.02678 31.2681 4.5 30.0095 4.5 28.6973V14.5917L19.992 23.6128C20.1459 23.7026 20.3213 23.75 20.5 23.75C20.6787 23.75 20.8541 23.7026 21.008 23.6128L36.5 14.5917ZM31.5 7.91602C32.7303 7.91582 33.9175 8.36451 34.8344 9.17623C35.7514 9.98795 36.3337 11.1057 36.47 12.3157L20.5 21.6119L4.53 12.3157C4.66632 11.1057 5.24865 9.98795 6.16559 9.17623C7.08253 8.36451 8.26971 7.91582 9.5 7.91602H31.5Z" fill="white"/>
</svg>
