<svg width="200" height="200" viewBox="0 0 200 200" fill="none" xmlns="http://www.w3.org/2000/svg">
<path d="M162.88 64.7399H75.1202V62.5199C75.1202 60.0445 74.1368 57.6705 72.3865 55.9202C70.6361 54.1699 68.2622 53.1865 65.7868 53.1865H24.1468C21.6715 53.1865 19.2975 54.1699 17.5471 55.9202C15.7968 57.6705 14.8135 60.0445 14.8135 62.5199V161.333C14.8135 164.162 15.9373 166.875 17.9377 168.876C19.9381 170.876 22.6512 172 25.4801 172H162.88C165.703 171.991 168.408 170.863 170.401 168.864C172.394 166.864 173.514 164.156 173.513 161.333V75.3332C173.494 72.5227 172.366 69.8334 170.375 67.8498C168.384 65.8662 165.691 64.7486 162.88 64.7399Z" fill="white"/>
<path d="M168.206 41.093L85.6372 25.2227L62.2105 147.105L144.779 162.975L168.206 41.093Z" fill="white" stroke="#AD9D72" stroke-miterlimit="10"/>
<path d="M165.54 172.001H25.4801C22.6512 172.001 19.9381 170.877 17.9377 168.876C15.9373 166.876 14.8135 164.163 14.8135 161.334L29.0201 94.0007C29.0201 91.1717 30.144 88.4586 32.1443 86.4582C34.1447 84.4578 36.8578 83.334 39.6868 83.334H179.72C182.549 83.334 185.262 84.4578 187.263 86.4582C189.263 88.4586 190.387 91.1717 190.387 94.0007L176.173 161.334C176.174 164.157 175.054 166.865 173.061 168.865C171.068 170.864 168.363 171.992 165.54 172.001Z" fill="#AD9D72"/>
<path d="M115.873 44.0439L91.8457 39.4258L89.0748 53.8419L113.102 58.46L115.873 44.0439Z" fill="#AD9D72"/>
<path d="M88.7866 63.6738L152.847 76.4805" stroke="#9D9D9D" stroke-width="4" stroke-miterlimit="10"/>
</svg>
