<svg width="200" height="200" viewBox="0 0 200 200" fill="none" xmlns="http://www.w3.org/2000/svg">
<path d="M146 26.333H26.6665V173.666H146V26.333Z" fill="white"/>
<path d="M133.333 46.333H38.6665V47.6663H133.333V46.333Z" fill="#9D9D9D" stroke="#9D9D9D" stroke-width="0.25" stroke-miterlimit="10"/>
<path d="M133.333 71H38.6665V72.3333H133.333V71Z" fill="#9D9D9D" stroke="#9D9D9D" stroke-width="0.25" stroke-miterlimit="10"/>
<path d="M73.9998 85H38.6665V123.667H73.9998V85Z" fill="#9D9D9D" stroke="#9D9D9D" stroke-width="0.25" stroke-miterlimit="10"/>
<path d="M125.333 104.333H82V155H125.333V104.333Z" fill="#9D9D9D" stroke="#9D9D9D" stroke-width="0.25" stroke-miterlimit="10"/>
<path d="M139.626 133.6L135.64 142.3L134.913 151L141.44 144.113L144.066 133.6H139.626Z" fill="#AD9D72"/>
<path d="M138.173 134L144.34 136.533C144.34 136.533 158.833 100.287 159.92 94.8534L171.52 63.3201L173.333 58.2134C173.333 58.2134 173.333 52.4134 168.62 56.4001L154.12 92.2801C154.12 92.2801 139.626 128.893 138.173 134Z" fill="#AD9D72"/>
<path d="M135.467 151.46C132.027 149.913 128.207 150.286 124.8 151.673C121.24 153.113 118.247 155.533 115.107 157.673C109.964 161.344 103.755 163.219 97.44 163.006C91.387 162.887 85.4975 161.021 80.48 157.633C77.9692 155.876 75.7471 153.74 73.8933 151.3C71.94 148.78 70.1266 146.08 67.56 144.133C66.0452 142.963 64.2666 142.182 62.38 141.86C60.1266 141.473 57.8533 141.6 55.58 141.513C52.48 141.4 48.2466 140.386 47.58 136.846C47.3333 135.586 45.4066 136.12 45.6466 137.38C46.2466 140.453 49.1066 142.313 51.9533 143.066C55.6733 144.06 59.6333 143.066 63.3266 144.16C66.5133 145.133 68.7333 147.813 70.66 150.36C72.5866 152.906 74.5133 155.426 76.98 157.506C86.4533 165.453 100.607 167.406 111.773 161.993C115.627 160.126 118.84 157.253 122.507 155.073C126 152.993 130.507 151.426 134.507 153.206C135.673 153.733 136.693 152.013 135.52 151.48L135.467 151.46Z" fill="#AD9D72"/>
</svg>
