<svg width="200" height="200" viewBox="0 0 200 200" fill="none" xmlns="http://www.w3.org/2000/svg">
<path d="M150.34 86.4196H77.0465V84.5663C77.0413 82.5063 76.2206 80.5322 74.764 79.0756C73.3073 77.6189 71.3332 76.7982 69.2732 76.793H34.4799C32.4204 76.8 30.4473 77.6212 28.9911 79.0775C27.5348 80.5338 26.7136 82.5068 26.7065 84.5663V167.113C26.7136 169.468 27.6521 171.724 29.3172 173.389C30.9822 175.054 33.2385 175.993 35.5932 176H150.34C152.695 175.993 154.951 175.054 156.616 173.389C158.281 171.724 159.22 169.468 159.227 167.113V95.333C159.227 92.9736 158.291 90.7105 156.625 89.0397C154.96 87.3689 152.699 86.4267 150.34 86.4196Z" fill="white"/>
<path d="M152.567 176H35.5932C33.2385 175.993 30.9822 175.054 29.3172 173.389C27.6521 171.724 26.7136 169.468 26.7065 167.113L38.5532 110.853C38.5673 108.505 39.5082 106.257 41.1712 104.599C42.8343 102.941 45.0848 102.007 47.4332 102H164.407C166.761 102.007 169.018 102.946 170.683 104.611C172.348 106.276 173.286 108.532 173.293 110.887L161.447 167.147C161.432 169.495 160.492 171.743 158.829 173.401C157.165 175.059 154.915 175.993 152.567 176Z" fill="#AD9D72"/>
<path d="M111.333 24H86.833V67.9867H111.333V24Z" fill="#9D9D9D"/>
<path d="M99.3601 98.053L72.0801 67.9863H126.087L99.3601 98.053Z" fill="#9D9D9D"/>
</svg>
