<svg width="200" height="200" viewBox="0 0 200 200" fill="none" xmlns="http://www.w3.org/2000/svg">
<path d="M58.3932 35.9795H29.7132C26.5873 35.9795 24.0532 38.5136 24.0532 41.6395V166.446C24.0532 169.572 26.5873 172.106 29.7132 172.106H58.3932C61.5192 172.106 64.0532 169.572 64.0532 166.446V41.6395C64.0532 38.5136 61.5192 35.9795 58.3932 35.9795Z" fill="white"/>
<path d="M44.0533 159.206C51.3582 159.206 57.28 153.285 57.28 145.98C57.28 138.675 51.3582 132.753 44.0533 132.753C36.7484 132.753 30.8267 138.675 30.8267 145.98C30.8267 153.285 36.7484 159.206 44.0533 159.206Z" fill="#9D9D9D"/>
<path d="M54.8398 54.6865H32.2598V99.1999H54.8398V54.6865Z" fill="#AD9D72"/>
<path d="M44.0532 155.979C49.5761 155.979 54.0532 151.502 54.0532 145.979C54.0532 140.457 49.5761 135.979 44.0532 135.979C38.5304 135.979 34.0532 140.457 34.0532 145.979C34.0532 151.502 38.5304 155.979 44.0532 155.979Z" fill="white"/>
<path d="M113.227 35.9795H84.5467C81.4208 35.9795 78.8867 38.5136 78.8867 41.6395V166.446C78.8867 169.572 81.4208 172.106 84.5467 172.106H113.227C116.353 172.106 118.887 169.572 118.887 166.446V41.6395C118.887 38.5136 116.353 35.9795 113.227 35.9795Z" fill="white"/>
<path d="M98.8868 159.206C106.192 159.206 112.113 153.285 112.113 145.98C112.113 138.675 106.192 132.753 98.8868 132.753C91.5819 132.753 85.6602 138.675 85.6602 145.98C85.6602 153.285 91.5819 159.206 98.8868 159.206Z" fill="#9D9D9D"/>
<path d="M109.68 54.6865H87.1001V99.1999H109.68V54.6865Z" fill="#AD9D72"/>
<path d="M98.8867 155.979C104.41 155.979 108.887 151.502 108.887 145.979C108.887 140.457 104.41 135.979 98.8867 135.979C93.3639 135.979 88.8867 140.457 88.8867 145.979C88.8867 151.502 93.3639 155.979 98.8867 155.979Z" fill="white"/>
<path d="M153.466 32.6422L125.133 37.0892C122.044 37.5739 119.934 40.4702 120.419 43.5583L139.771 166.856C140.255 169.944 143.152 172.054 146.24 171.569L174.573 167.123C177.661 166.638 179.772 163.741 179.287 160.653L159.935 37.3561C159.45 34.268 156.554 32.1575 153.466 32.6422Z" fill="white"/>
<path d="M156.36 156.76C163.665 156.76 169.587 150.838 169.587 143.533C169.587 136.228 163.665 130.307 156.36 130.307C149.055 130.307 143.133 136.228 143.133 143.533C143.133 150.838 149.055 156.76 156.36 156.76Z" fill="#9D9D9D"/>
<path d="M152.856 51.6785L130.549 55.1797L137.451 99.1547L159.758 95.6535L152.856 51.6785Z" fill="#AD9D72"/>
<path d="M156.36 153.533C161.883 153.533 166.36 149.056 166.36 143.533C166.36 138.01 161.883 133.533 156.36 133.533C150.837 133.533 146.36 138.01 146.36 143.533C146.36 149.056 150.837 153.533 156.36 153.533Z" fill="white"/>
<path d="M0 172.106H200" stroke="white" stroke-miterlimit="10"/>
</svg>
